<svg xmlns="http://www.w3.org/2000/svg" viewBox="0 0 271.52 512" width="65" height="65"><path d="M391.18,397.4l-38.59-92.62a15.43,15.43,0,0,0-10.06-8.95l-47.08-13.46c.07-.76.12-1.54.12-2.32a24.28,24.28,0,0,0-.37-4.12l34.43-27.54a23.69,23.69,0,0,0,7-9.33l38.5-92.4a7.5,7.5,0,0,0-13.85-5.77l-38.5,92.4a8.6,8.6,0,0,1-2.55,3.39l-32.42,25.94a23.6,23.6,0,0,0-8.3-4.87v-16.4A43.19,43.19,0,0,0,289.9,233c9-9.89,13.68-24.11,13.68-41.11a73.88,73.88,0,0,0-3.26-22.48l21.38-24.1a23.54,23.54,0,0,0,5.93-15.62V37.56a24.37,24.37,0,0,1,1.17-7.49l6.49-20.28A7.5,7.5,0,1,0,321,5.22L314.51,25.5a39.47,39.47,0,0,0-1.88,12.06v92.11a8.54,8.54,0,0,1-2.15,5.67l-17.3,19.5a44.54,44.54,0,0,0-3.28-4.07c-.52-.58-1.06-1.15-1.62-1.7,6.59-25.31-10.28-42-11-42.75a7.5,7.5,0,1,0-10.47,10.74,30.49,30.49,0,0,1,7.9,22.91,49.13,49.13,0,0,0-37.36,0,30.46,30.46,0,0,1,7.9-22.9,7.5,7.5,0,0,0-10.46-10.75c-.76.73-17.62,17.44-11,42.75-.55.55-1.09,1.12-1.62,1.7a46.2,46.2,0,0,0-3.27,4.07l-17.31-19.5a8.59,8.59,0,0,1-2.15-5.67V37.56a39.47,39.47,0,0,0-1.88-12.06L191,5.22a7.5,7.5,0,1,0-14.29,4.57l6.5,20.28a24.72,24.72,0,0,1,1.16,7.49v92.11a23.54,23.54,0,0,0,5.93,15.62l21.38,24.1a73.88,73.88,0,0,0-3.26,22.48c0,17,4.73,31.22,13.68,41.11a43.19,43.19,0,0,0,10.37,8.37v16.4a23.6,23.6,0,0,0-8.3,4.87l-32.43-26a8.57,8.57,0,0,1-2.54-3.38l-38.5-92.4a7.5,7.5,0,1,0-13.85,5.77l38.5,92.41a23.66,23.66,0,0,0,7,9.32l34.42,27.54a24.28,24.28,0,0,0-.36,4.12c0,.78,0,1.56.11,2.33l-47.07,13.45a15.39,15.39,0,0,0-10.06,8.95l-38.6,92.63a7.49,7.49,0,0,0,4,9.8,7.34,7.34,0,0,0,2.88.58,7.5,7.5,0,0,0,6.93-4.61l38.59-92.63a.49.49,0,0,1,.34-.3L219.9,297a137.06,137.06,0,0,0-13.62,27L176.5,349.74a23.52,23.52,0,0,0-8.16,17.82v99.2a16.54,16.54,0,0,1-1.75,7.4l-13.49,27a7.5,7.5,0,1,0,13.42,6.71l13.49-27a31.71,31.71,0,0,0,3.33-14.11V367.55a8.54,8.54,0,0,1,3-6.46l11.86-10.23a222.09,222.09,0,0,0-5.77,49.43c0,25,6.25,48.54,17.61,66.38,12,18.89,28.36,29.3,46,29.3s34-10.41,46-29.3c11.35-17.85,17.6-41.42,17.6-66.38a221.35,221.35,0,0,0-5.77-49.42l11.86,10.22a8.54,8.54,0,0,1,3,6.46v99.21A31.71,31.71,0,0,0,332,480.87l13.5,27A7.49,7.49,0,0,0,352.2,512a7.5,7.5,0,0,0,6.7-10.86l-13.49-27a16.57,16.57,0,0,1-1.75-7.4V367.55a23.55,23.55,0,0,0-8.16-17.82l-29.77-25.67a137.61,137.61,0,0,0-13.63-27l46.3,13.23a.49.49,0,0,1,.34.3l38.59,92.62a7.51,7.51,0,0,0,6.93,4.62,7.34,7.34,0,0,0,2.88-.58A7.5,7.5,0,0,0,391.18,397.4ZM223.42,191.87c0-25,12.48-40.6,32.58-40.6s32.58,15.56,32.58,40.6-12.48,40.6-32.58,40.6S223.42,216.91,223.42,191.87Zm41.11,54.86v9.79H247.47v-9.79a49.53,49.53,0,0,0,17.06,0ZM240,288.58a8.53,8.53,0,0,1,0-17.06H272a8.53,8.53,0,1,1,0,17.06,7.5,7.5,0,0,0,0,15,23.66,23.66,0,0,0,5.87-.74,94.19,94.19,0,0,1,7.19,11.74,72.85,72.85,0,0,1-58.18,0,93,93,0,0,1,7.2-11.74,23.58,23.58,0,0,0,5.86.74,7.5,7.5,0,0,0,0-15ZM256,481c-10.73,0-21.08-6-29.63-17.07h59.27C277.09,475,266.73,481,256,481Zm38.63-32.07H217.37a101.08,101.08,0,0,1-6.07-17.06h89.4A100.77,100.77,0,0,1,294.63,448.9Zm10-48.61a130.26,130.26,0,0,1-1,16.55H208.43a130.26,130.26,0,0,1-1-16.55v-.52h97.22Zm-5.77-47.58H288.06a7.5,7.5,0,0,0,0,15h13.8c.93,5.64,1.64,11.36,2.1,17.06H208c.46-5.7,1.17-11.42,2.1-17.06H256a7.5,7.5,0,0,0,0-15H213.16a187.35,187.35,0,0,1,7.58-24.46,87.7,87.7,0,0,0,70.52,0A187.35,187.35,0,0,1,298.84,352.71Z" transform="translate(-120.24 0)"></path><path></path><path></path><path></path><path></path></svg>