<svg xmlns="http://www.w3.org/2000/svg" viewBox="0 0 413.8 512" width="65" height="65"><path d="M439,33.9h-1.5A42.4,42.4,0,0,0,396.2,0H115.6A42.4,42.4,0,0,0,74.3,33.9H72.8a23.8,23.8,0,1,0,0,47.5h.6V269.7c0,9.9,15.1,9.9,15.1,0V81.4h26.4V303c0,10,15,10,15,0V266.4h63.9V303c0,10,15,10,15,0V81.4H352.4c9.9,0,9.9-15,0-15H72.8a8.8,8.8,0,1,1,0-17.5H439a8.8,8.8,0,1,1,0,17.5H382.6c-9.9,0-9.9,15,0,15h40.7v236a23,23,0,0,1-6.3,15.9H94.8a23,23,0,0,1-6.3-15.9V300c0-9.9-15.1-9.9-15.1,0v17.4c0,23.2,17.5,31.5,19.5,33.7L77.2,495.7A14.7,14.7,0,0,0,91.8,512h20.3a14.7,14.7,0,0,0,14.2-10.9L154,398.6l61.1,47.3v10.6a23,23,0,0,0,23,23h35.6a23.1,23.1,0,0,0,23.1-23V445.9l63.2-49,28.1,104.2A14.9,14.9,0,0,0,402.3,512h20.3a14.7,14.7,0,0,0,14.6-16.3L421.4,349.3c.3-.4,17-10.5,17-31.9V81.4h.6a23.8,23.8,0,1,0,0-47.5ZM193.8,186.4H129.9v-50h63.9Zm-63.9,65v-50h63.9v50Zm63.9-130.1H129.9V81.4h63.9ZM115.6,15H396.2A27.3,27.3,0,0,1,422,33.9H89.8A27.3,27.3,0,0,1,115.6,15ZM286.7,434.7H225.1L113.7,348.3H398.1ZM111.9,497H92.2l14.6-135,34.4,26.6Zm161.8-32.5H238.1a8,8,0,0,1-8-8v-6.7h51.6v6.7A8,8,0,0,1,273.7,464.5ZM422.3,497H402.6L372.8,386.9l34.6-26.8Z" transform="translate(-49)"></path><path></path><path></path><path></path><path></path></svg>