<svg xmlns="http://www.w3.org/2000/svg" viewBox="0 0 502 512" width="65" height="65"><path d="M497,40H447a10,10,0,0,0-10,10v5H407a10,10,0,0,0-8.7,5.1C307.6,63.7,235,138.5,235,230v10h-5a10,10,0,0,0-10,10v40a10,10,0,0,0,10,10h5v37a34.8,34.8,0,0,1-35,35,35,35,0,0,1-35-35V300h5a10,10,0,0,0,10-10V250a10,10,0,0,0-10-10h-5V108.7a10.1,10.1,0,0,0,5-8.7V70h5a10,10,0,0,0,10-10V10A10,10,0,0,0,175,0H15A10,10,0,0,0,5,10V60A10,10,0,0,0,15,70h5v30a10.1,10.1,0,0,0,5,8.7V240H20a10,10,0,0,0-10,10v40a10,10,0,0,0,10,10h5v37a172.7,172.7,0,0,0,13.8,68.1,167.1,167.1,0,0,0,16.1,29.7,177.4,177.4,0,0,0,47.3,47.3A172.6,172.6,0,0,0,200,512h0a179.7,179.7,0,0,0,37.6-4,187.1,187.1,0,0,0,34.8-11.6,178.1,178.1,0,0,0,57.7-42.3,10.1,10.1,0,0,0-.8-14.1,9.7,9.7,0,0,0-6.7-2.6,10,10,0,0,0-7.4,3.3A155,155,0,0,1,45,337V300H145v37a55,55,0,0,0,93.9,38.9A54.7,54.7,0,0,0,255,337V300H355v37a156.5,156.5,0,0,1-2.7,29,9.7,9.7,0,0,0,1.6,7.4,9.4,9.4,0,0,0,6.4,4.2,5.5,5.5,0,0,0,1.8.2,9.9,9.9,0,0,0,9.8-8.1A170.1,170.1,0,0,0,375,337V300h5a10,10,0,0,0,10-10V250a10,10,0,0,0-10-10h-5v-8a32.1,32.1,0,0,1,24-31,10,10,0,0,0,8,4h30v5a10,10,0,0,0,10,10h50a10,10,0,0,0,10-10V50a10,10,0,0,0-10-10ZM160,280H30V260H160ZM145,110V240H45V110ZM80,90V70h30V90Zm50,0V70h20V90ZM60,90H40V70H60ZM25,50V20H165V50ZM370,280H240V260H370Zm27-99a52,52,0,0,0-42,51v8H255V230c0-80,63-145.6,142-149.8Zm40,4H417V165h20Zm0-40H417V115h20Zm0-50H417V75h20Zm50,105H457V60h30Z" transform="translate(-5)"></path><path d="M105.5,401.7a10.2,10.2,0,0,0-8.3-4.4,9.9,9.9,0,0,0-9.8,8.1,9.4,9.4,0,0,0,1.5,7.5A134.2,134.2,0,0,0,165,467.4l2.6.3a10.1,10.1,0,0,0,9.7-7.4,9.9,9.9,0,0,0-7.1-12.2,113.5,113.5,0,0,1-64.7-46.4Z" transform="translate(-5)"></path><path d="M105.5,401.7a10.2,10.2,0,0,0-8.3-4.4,9.9,9.9,0,0,0-9.8,8.1,9.4,9.4,0,0,0,1.5,7.5A134.2,134.2,0,0,0,165,467.4l2.6.3a10.1,10.1,0,0,0,9.7-7.4,9.9,9.9,0,0,0-7.1-12.2,113.5,113.5,0,0,1-64.7-46.4Z"></path><path></path><path></path></svg>