<svg id="Layer_1" data-name="Layer 1" xmlns="http://www.w3.org/2000/svg" viewBox="0 0 142.54 32.07"><defs></defs><path d="M4.66,7h6.82V27.25H4.66Z" transform="translate(-4.45 -4)" style="fill: white;"></path><path d="M36.17,7V27.25H30.56l-7.69-9.2v9.2H16.22V7h5.61l7.69,9.19V7Z" transform="translate(-4.45 -4)" style="fill: white;"></path><path d="M43.55,27.15a13.07,13.07,0,0,1-3.91-1.52l2.19-5A14.3,14.3,0,0,0,45.07,22a12.58,12.58,0,0,0,3.44.51,5.21,5.21,0,0,0,2-.28.88.88,0,0,0,.6-.82c0-.43-.26-.74-.79-1a17.25,17.25,0,0,0-2.62-.69,31.06,31.06,0,0,1-3.9-1.05,6.7,6.7,0,0,1-2.72-1.86A5,5,0,0,1,40,13.37,6,6,0,0,1,41,9.9a7.13,7.13,0,0,1,3.2-2.46,13.44,13.44,0,0,1,5.16-.89A18.64,18.64,0,0,1,53.47,7,12.76,12.76,0,0,1,57,8.31l-2,4.95a12.5,12.5,0,0,0-5.64-1.51c-1.75,0-2.63.43-2.63,1.27,0,.41.26.71.78.91a16.5,16.5,0,0,0,2.57.66,26,26,0,0,1,3.91,1,6.81,6.81,0,0,1,2.76,1.84,4.92,4.92,0,0,1,1.17,3.47,6,6,0,0,1-1.07,3.45,7.27,7.27,0,0,1-3.2,2.46,13,13,0,0,1-5.16.91A21.59,21.59,0,0,1,43.55,27.15Z" transform="translate(-4.45 -4)" style="fill: white;"></path><path d="M78.17,22.1v5.15H61.35V7H77.8v5.15H68.05v2.37h8.56v4.91H68.05V22.1Z" transform="translate(-4.45 -4)" style="fill: white;"></path><path d="M86.64,12.3H80.72V7H99.39V12.3H93.46v15H86.64Z" transform="translate(-4.45 -4)" style="fill: white;"></path><path d="M119.42,22.1v5.15H102.6V7h16.45v5.15h-9.74v2.37h8.55v4.91h-8.55V22.1Z" transform="translate(-4.45 -4)" style="fill: white;"></path><path d="M5.42,35.8a1.89,1.89,0,0,1-.71-.72,2,2,0,0,1-.26-1,2,2,0,0,1,.26-1,1.78,1.78,0,0,1,.72-.72,1.94,1.94,0,0,1,1-.26,2,2,0,0,1,.83.16,1.86,1.86,0,0,1,.65.49l-.45.45a1.28,1.28,0,0,0-1-.46,1.41,1.41,0,0,0-.69.17,1.23,1.23,0,0,0-.47.49,1.59,1.59,0,0,0,0,1.43,1.17,1.17,0,0,0,.47.49,1.31,1.31,0,0,0,.69.18,1.26,1.26,0,0,0,1-.47l.45.45a1.65,1.65,0,0,1-.65.49,2.14,2.14,0,0,1-1.86-.09Z" transform="translate(-4.45 -4)" style="fill: white;"></path><path d="M10.36,35.8a1.94,1.94,0,0,1-.72-.73,2.07,2.07,0,0,1-.26-1,2.14,2.14,0,0,1,.26-1,1.91,1.91,0,0,1,.72-.72,2,2,0,0,1,1-.26,2,2,0,0,1,1,.26,1.78,1.78,0,0,1,.72.72,2,2,0,0,1,.26,1,2,2,0,0,1-.26,1,1.85,1.85,0,0,1-.72.72,2.07,2.07,0,0,1-1,.26A2.1,2.1,0,0,1,10.36,35.8Zm1.7-.56a1.17,1.17,0,0,0,.47-.49,1.57,1.57,0,0,0,0-1.42,1.26,1.26,0,0,0-.47-.5,1.33,1.33,0,0,0-.67-.17,1.36,1.36,0,0,0-.67.17,1.26,1.26,0,0,0-.47.5,1.57,1.57,0,0,0,0,1.42,1.17,1.17,0,0,0,.47.49,1.27,1.27,0,0,0,.67.18A1.24,1.24,0,0,0,12.06,35.24Z" transform="translate(-4.45 -4)" style="fill: white;"></path><path d="M18.59,32.07V36H18L16,33.34V36h-.68V32.07h.57l2.06,2.66V32.07Z" transform="translate(-4.45 -4)" style="fill: white;"></path><path d="M21.49,32.69H20.25v-.62h3.17v.62H22.18V36h-.69Z" transform="translate(-4.45 -4)" style="fill: white;"></path><path d="M27.52,36l-.76-1.15h-1V36h-.69V32.07h1.54a2,2,0,0,1,.84.17,1.26,1.26,0,0,1,.56.48,1.49,1.49,0,0,1,.19.75,1.33,1.33,0,0,1-.21.76,1.17,1.17,0,0,1-.59.48L28.27,36Zm-.25-3.11a1,1,0,0,0-.68-.2h-.82v1.57h.82a1,1,0,0,0,.68-.21.71.71,0,0,0,.24-.58A.73.73,0,0,0,27.27,32.89Z" transform="translate(-4.45 -4)" style="fill: white;"></path><path d="M30.83,35.8a1.94,1.94,0,0,1-.72-.73,2.07,2.07,0,0,1-.26-1,2.14,2.14,0,0,1,.26-1,1.91,1.91,0,0,1,.72-.72,2,2,0,0,1,1-.26,2,2,0,0,1,1,.26,1.78,1.78,0,0,1,.72.72,2,2,0,0,1,.26,1,2,2,0,0,1-.26,1,1.85,1.85,0,0,1-.72.72,2.07,2.07,0,0,1-1,.26A2.1,2.1,0,0,1,30.83,35.8Zm1.7-.56a1.17,1.17,0,0,0,.47-.49,1.57,1.57,0,0,0,0-1.42,1.26,1.26,0,0,0-.47-.5,1.41,1.41,0,0,0-1.34,0,1.26,1.26,0,0,0-.47.5,1.57,1.57,0,0,0,0,1.42,1.17,1.17,0,0,0,.47.49,1.34,1.34,0,0,0,1.34,0Z" transform="translate(-4.45 -4)" style="fill: white;"></path><path d="M35.75,32.07h.69v3.32h2V36H35.75Z" transform="translate(-4.45 -4)" style="fill: white;"></path><path d="M42.88,35.39V36h-2.8V32.07H42.8v.61h-2v1h1.8v.6h-1.8v1.08Z" transform="translate(-4.45 -4)" style="fill: white;"></path><path d="M48.15,32.69H46.92v-.62h3.17v.62H48.85V36h-.7Z" transform="translate(-4.45 -4)" style="fill: white;"></path><path d="M54.55,35.39V36H51.74V32.07h2.73v.61h-2v1h1.8v.6h-1.8v1.08Z" transform="translate(-4.45 -4)" style="fill: white;"></path><path d="M57.15,35.8a1.85,1.85,0,0,1-.72-.72,2.14,2.14,0,0,1-.26-1,2.11,2.11,0,0,1,.26-1,1.91,1.91,0,0,1,.72-.72,2,2,0,0,1,1-.26,2.06,2.06,0,0,1,.84.16,1.83,1.83,0,0,1,.64.49l-.45.45a1.27,1.27,0,0,0-1-.46,1.4,1.4,0,0,0-.68.17,1.26,1.26,0,0,0-.48.49,1.59,1.59,0,0,0,0,1.43,1.19,1.19,0,0,0,.48.49,1.3,1.3,0,0,0,.68.18,1.24,1.24,0,0,0,1-.47l.45.45a1.62,1.62,0,0,1-.64.49,2.14,2.14,0,0,1-.84.17A2,2,0,0,1,57.15,35.8Z" transform="translate(-4.45 -4)" style="fill: white;"></path><path d="M64.77,32.07V36H64.2l-2.06-2.66V36h-.69V32.07H62l2.06,2.66V32.07Z" transform="translate(-4.45 -4)" style="fill: white;"></path><path d="M67.63,35.8a1.81,1.81,0,0,1-.72-.73,2,2,0,0,1-.27-1,2,2,0,0,1,.27-1,1.78,1.78,0,0,1,.72-.72,2.15,2.15,0,0,1,2.05,0,1.87,1.87,0,0,1,.73.72,2.11,2.11,0,0,1,.26,1,2.14,2.14,0,0,1-.26,1,1.94,1.94,0,0,1-.73.72,2.15,2.15,0,0,1-2.05,0Zm1.7-.56a1.23,1.23,0,0,0,.47-.49,1.57,1.57,0,0,0,0-1.42,1.33,1.33,0,0,0-.47-.5,1.43,1.43,0,0,0-1.35,0,1.33,1.33,0,0,0-.47.5,1.57,1.57,0,0,0,0,1.42,1.23,1.23,0,0,0,.47.49,1.36,1.36,0,0,0,1.35,0Z" transform="translate(-4.45 -4)" style="fill: white;"></path><path d="M72.54,32.07h.69v3.32h2V36H72.54Z" transform="translate(-4.45 -4)" style="fill: white;"></path><path d="M77.52,35.8a1.81,1.81,0,0,1-.72-.73,2,2,0,0,1-.27-1,2,2,0,0,1,.27-1,1.78,1.78,0,0,1,.72-.72,2,2,0,0,1,1-.26,2,2,0,0,1,1,.26,1.91,1.91,0,0,1,.72.72,2.11,2.11,0,0,1,.26,1,2.14,2.14,0,0,1-.26,1,2,2,0,0,1-.72.72,2.1,2.1,0,0,1-1,.26A2.07,2.07,0,0,1,77.52,35.8Zm1.7-.56a1.23,1.23,0,0,0,.47-.49,1.57,1.57,0,0,0,0-1.42,1.33,1.33,0,0,0-.47-.5,1.43,1.43,0,0,0-1.35,0,1.33,1.33,0,0,0-.47.5,1.57,1.57,0,0,0,0,1.42,1.23,1.23,0,0,0,.47.49,1.36,1.36,0,0,0,1.35,0ZM78.82,31h.78l-.93.77H78.1Z" transform="translate(-4.45 -4)" style="fill: white;"></path><path d="M85,34h.66v1.57a2,2,0,0,1-.68.37,2.32,2.32,0,0,1-.78.13,2.11,2.11,0,0,1-1-.26,2,2,0,0,1-.72-.72,2.14,2.14,0,0,1-.26-1,2.11,2.11,0,0,1,.26-1,1.87,1.87,0,0,1,.73-.72,2,2,0,0,1,1-.26,2.16,2.16,0,0,1,.86.16,1.69,1.69,0,0,1,.64.48l-.43.44a1.41,1.41,0,0,0-1-.44,1.38,1.38,0,0,0-.71.17,1.23,1.23,0,0,0-.47.49,1.51,1.51,0,0,0,0,1.43,1.23,1.23,0,0,0,.47.49,1.38,1.38,0,0,0,.7.18,1.5,1.5,0,0,0,.77-.2Z" transform="translate(-4.45 -4)" style="fill: white;"></path><path d="M87.68,32.07h.7V36h-.7Z" transform="translate(-4.45 -4)" style="fill: white;"></path><path d="M91.23,35.8a2,2,0,0,1-.72-.72,2.13,2.13,0,0,1-.25-1,2,2,0,0,1,.26-1,1.82,1.82,0,0,1,.71-.72,2,2,0,0,1,1-.26,2,2,0,0,1,.83.16,1.74,1.74,0,0,1,.64.49l-.44.45a1.29,1.29,0,0,0-1-.46,1.41,1.41,0,0,0-.69.17,1.23,1.23,0,0,0-.47.49,1.51,1.51,0,0,0,0,1.43,1.17,1.17,0,0,0,.47.49,1.31,1.31,0,0,0,.69.18,1.27,1.27,0,0,0,1-.47l.44.45a1.62,1.62,0,0,1-.64.49,2.07,2.07,0,0,1-.84.17A2,2,0,0,1,91.23,35.8Z" transform="translate(-4.45 -4)" style="fill: white;"></path><path d="M96.17,35.8a1.94,1.94,0,0,1-.72-.73,2.07,2.07,0,0,1-.26-1,2.14,2.14,0,0,1,.26-1,1.91,1.91,0,0,1,.72-.72,2,2,0,0,1,1-.26,2,2,0,0,1,1,.26A1.78,1.78,0,0,1,99,33a2,2,0,0,1,.26,1,2,2,0,0,1-.26,1,1.85,1.85,0,0,1-.72.72,2.07,2.07,0,0,1-1,.26A2.1,2.1,0,0,1,96.17,35.8Zm1.7-.56a1.17,1.17,0,0,0,.47-.49,1.57,1.57,0,0,0,0-1.42,1.26,1.26,0,0,0-.47-.5,1.41,1.41,0,0,0-1.34,0,1.26,1.26,0,0,0-.47.5,1.57,1.57,0,0,0,0,1.42,1.17,1.17,0,0,0,.47.49,1.34,1.34,0,0,0,1.34,0Z" transform="translate(-4.45 -4)" style="fill: white;"></path><path d="M103.69,32.07h1.64a2.18,2.18,0,0,1,1.06.25,1.71,1.71,0,0,1,.72.69,2.25,2.25,0,0,1,0,2.06,1.71,1.71,0,0,1-.72.69,2.3,2.3,0,0,1-1.06.24h-1.64Zm1.6,3.32a1.54,1.54,0,0,0,.73-.17,1.21,1.21,0,0,0,.48-.47,1.49,1.49,0,0,0,.17-.71,1.46,1.46,0,0,0-.17-.71,1.23,1.23,0,0,0-.48-.48,1.54,1.54,0,0,0-.73-.16h-.9v2.7Z" transform="translate(-4.45 -4)" style="fill: white;"></path><path d="M112,35.39V36h-2.8V32.07H112v.61h-2v1h1.8v.6h-1.8v1.08Z" transform="translate(-4.45 -4)" style="fill: white;"></path><path d="M116.56,32.07h.69V36h-.69Z" transform="translate(-4.45 -4)" style="fill: white;"></path><path d="M122.71,32.07V36h-.57l-2.06-2.66V36h-.69V32.07H120L122,34.73V32.07Z" transform="translate(-4.45 -4)" style="fill: white;"></path><path d="M125.17,35.93a1.64,1.64,0,0,1-.63-.34l.24-.57a1.77,1.77,0,0,0,.56.31,1.93,1.93,0,0,0,.67.12,1.05,1.05,0,0,0,.62-.14.42.42,0,0,0,.21-.37.38.38,0,0,0-.12-.28.82.82,0,0,0-.29-.17l-.48-.14a5.9,5.9,0,0,1-.69-.21,1.06,1.06,0,0,1-.45-.33.94.94,0,0,1-.19-.62,1.07,1.07,0,0,1,.16-.59,1.28,1.28,0,0,1,.51-.43,2.05,2.05,0,0,1,.83-.15,3,3,0,0,1,.67.08,2.14,2.14,0,0,1,.57.26l-.22.57a2,2,0,0,0-.51-.23,1.86,1.86,0,0,0-.51-.08,1,1,0,0,0-.61.15.45.45,0,0,0-.21.39.34.34,0,0,0,.12.27.82.82,0,0,0,.29.17l.48.14a5.14,5.14,0,0,1,.68.21,1.18,1.18,0,0,1,.46.34.86.86,0,0,1,.19.6,1.08,1.08,0,0,1-.68,1,1.89,1.89,0,0,1-.83.16A2.63,2.63,0,0,1,125.17,35.93Z" transform="translate(-4.45 -4)" style="fill: white;"></path><path d="M132.14,35.39V36h-2.8V32.07h2.73v.61h-2v1h1.8v.6H130v1.08Z" transform="translate(-4.45 -4)" style="fill: white;"></path><path d="M134.81,32.69h-1.24v-.62h3.17v.62H135.5V36h-.69Z" transform="translate(-4.45 -4)" style="fill: white;"></path><path d="M139.06,35.8a1.94,1.94,0,0,1-.72-.73,2.07,2.07,0,0,1-.26-1,2.14,2.14,0,0,1,.26-1,1.91,1.91,0,0,1,.72-.72,2,2,0,0,1,1-.26,2,2,0,0,1,1,.26,1.78,1.78,0,0,1,.72.72,2,2,0,0,1,.26,1,2,2,0,0,1-.26,1,1.85,1.85,0,0,1-.72.72,2.07,2.07,0,0,1-1,.26A2.1,2.1,0,0,1,139.06,35.8Zm1.7-.56a1.17,1.17,0,0,0,.47-.49,1.57,1.57,0,0,0,0-1.42,1.26,1.26,0,0,0-.47-.5,1.41,1.41,0,0,0-1.34,0,1.26,1.26,0,0,0-.47.5,1.57,1.57,0,0,0,0,1.42,1.17,1.17,0,0,0,.47.49,1.34,1.34,0,0,0,1.34,0Z" transform="translate(-4.45 -4)" style="fill: white;"></path><path d="M144.3,35.93a1.69,1.69,0,0,1-.64-.34l.24-.57a1.77,1.77,0,0,0,.56.31,2,2,0,0,0,.67.12,1.09,1.09,0,0,0,.63-.14.43.43,0,0,0,.2-.37.41.41,0,0,0-.11-.28.87.87,0,0,0-.3-.17l-.47-.14a5.57,5.57,0,0,1-.7-.21,1.19,1.19,0,0,1-.45-.33.94.94,0,0,1-.19-.62,1.07,1.07,0,0,1,.17-.59,1.16,1.16,0,0,1,.51-.43,2,2,0,0,1,.83-.15,3.07,3.07,0,0,1,.67.08,2.14,2.14,0,0,1,.57.26l-.22.57a2,2,0,0,0-1-.31,1,1,0,0,0-.61.15.46.46,0,0,0-.2.39.37.37,0,0,0,.11.27.87.87,0,0,0,.3.17,4.43,4.43,0,0,0,.48.14A6.31,6.31,0,0,1,146,34a1.08,1.08,0,0,1,.45.34.86.86,0,0,1,.19.6,1.07,1.07,0,0,1-.16.59,1.18,1.18,0,0,1-.51.42,1.94,1.94,0,0,1-.84.16A2.62,2.62,0,0,1,144.3,35.93Z" transform="translate(-4.45 -4)" style="fill: white;"></path><polygon points="117 25.33 134.61 0 142.54 0 125.14 25.33 117 25.33" style="fill: rgb(48, 173, 237);"></polygon><polygon points="142.54 25.76 124.93 0.43 117 0.43 134.4 25.76 142.54 25.76" style="fill: rgb(48, 173, 237);"></polygon></svg>