<svg id="Layer_1" data-name="Layer 1" xmlns="http://www.w3.org/2000/svg" xmlns:xlink="http://www.w3.org/1999/xlink" viewBox="0 0 1294.27 291.16"><defs><style>.cls-1{fill:#1566b1;}.cls-2{fill:#0085ff;}</style></defs><path class="cls-1" d="M56.87,81.31h62V265.05H56.87Z" transform="translate(-54.95 -53.91)"/><path class="cls-1" d="M343,81.31V265.05H292.05l-69.82-83.47v83.47H161.86V81.31h50.92l69.82,83.47V81.31Z" transform="translate(-54.95 -53.91)"/><path class="cls-1" d="M374.47,250.35l19.95-45.15c17.32,10.24,40.42,16.8,60.63,16.8,17.59,0,23.89-3.67,23.89-10,0-23.1-101.58-4.46-101.58-73,0-34.12,28.61-61.95,85.57-61.95,24.67,0,50.13,5.25,69.29,16L513.58,138c-18.11-9.19-35.17-13.65-51.18-13.65-18.11,0-23.89,5.25-23.89,11.55,0,22,101.58,3.67,101.58,71.4,0,33.6-28.61,61.95-85.57,61.95C423.82,269.25,392.84,261.63,374.47,250.35Z" transform="translate(-54.95 -53.91)"/><path class="cls-1" d="M724.36,218.32V265H571.6V81.31H721V128H632.49v21.52h77.69v44.62H632.49v24.15Z" transform="translate(-54.95 -53.91)"/><path class="cls-1" d="M801.27,129.34H747.46v-48H917v48H863.21V265h-62V129.34Z" transform="translate(-54.95 -53.91)"/><path class="cls-1" d="M1098.92,218.32V265H946.16V81.31h149.35V128h-88.46v21.52h77.69v44.62h-77.69v24.15Z" transform="translate(-54.95 -53.91)"/><g id="CONTROLE_TECNOLÓGICO_DE_INSETOS" data-name="CONTROLE TECNOLÓGICO DE INSETOS"><path class="cls-1" d="M55,326.69c0-10.66,7.75-18.36,18.16-18.36a16.78,16.78,0,0,1,13.42,6l-4.07,4a11.62,11.62,0,0,0-9.06-4.18c-7,0-12.11,5.2-12.11,12.55s5.08,12.55,12.11,12.55A11.55,11.55,0,0,0,82.46,335l4.07,4.08c-3.15,3.88-7.89,6-13.46,6C62.7,345.06,55,337.35,55,326.69Z" transform="translate(-54.95 -53.91)"/><path class="cls-1" d="M99.76,326.69c0-10.56,7.75-18.36,18.26-18.36s18.26,7.75,18.26,18.36-7.75,18.36-18.26,18.36S99.76,337.25,99.76,326.69Zm30.17,0c0-7.29-5.09-12.55-11.91-12.55s-11.91,5.25-11.91,12.55,5.08,12.55,11.91,12.55S129.93,334,129.93,326.69Z" transform="translate(-54.95 -53.91)"/><path class="cls-1" d="M183.4,308.84v35.71h-5.18l-18.69-24.18v24.18h-6.25V308.84h5.18L177.15,333V308.84Z" transform="translate(-54.95 -53.91)"/><path class="cls-1" d="M209.71,314.45H198.47v-5.61h28.77v5.61H216v30.1h-6.3v-30.1Z" transform="translate(-54.95 -53.91)"/><path class="cls-1" d="M264.49,344.55l-6.93-10.46a11.48,11.48,0,0,1-1.31.05H248.6v10.41h-6.3V308.84h13.95c8.91,0,14.43,4.79,14.43,12.7,0,5.41-2.62,9.39-7.22,11.27l7.8,11.73h-6.77ZM256,314.45h-7.36v14.23H256c5.52,0,8.38-2.65,8.38-7.14S261.49,314.45,256,314.45Z" transform="translate(-54.95 -53.91)"/><path class="cls-1" d="M285.61,326.69c0-10.56,7.75-18.36,18.26-18.36s18.26,7.75,18.26,18.36-7.75,18.36-18.26,18.36S285.61,337.25,285.61,326.69Zm30.18,0c0-7.29-5.09-12.55-11.91-12.55S292,319.39,292,326.69s5.08,12.55,11.91,12.55S315.79,334,315.79,326.69Z" transform="translate(-54.95 -53.91)"/><path class="cls-1" d="M339.14,308.84h6.3v30.1h17.73v5.61h-24V308.84Z" transform="translate(-54.95 -53.91)"/><path class="cls-1" d="M403.9,339v5.56H378.47V308.84h24.75v5.56H384.77v9.28h16.37v5.46H384.77V339Z" transform="translate(-54.95 -53.91)"/><path class="cls-1" d="M451.81,314.45H440.57v-5.61h28.77v5.61H458.1v30.1h-6.3v-30.1Z" transform="translate(-54.95 -53.91)"/><path class="cls-1" d="M509.83,339v5.56H484.4V308.84h24.75v5.56H490.7v9.28h16.37v5.46H490.7V339Z" transform="translate(-54.95 -53.91)"/><path class="cls-1" d="M524.61,326.69c0-10.66,7.75-18.36,18.16-18.36a16.78,16.78,0,0,1,13.42,6l-4.07,4a11.62,11.62,0,0,0-9.06-4.18c-7,0-12.11,5.2-12.11,12.55s5.08,12.55,12.11,12.55a11.55,11.55,0,0,0,9.06-4.23l4.07,4.08c-3.15,3.88-7.89,6-13.46,6C532.36,345.06,524.61,337.35,524.61,326.69Z" transform="translate(-54.95 -53.91)"/><path class="cls-1" d="M602.69,308.84v35.71h-5.18l-18.69-24.18v24.18h-6.25V308.84h5.18L596.44,333V308.84Z" transform="translate(-54.95 -53.91)"/><path class="cls-1" d="M619.69,326.69c0-10.56,7.75-18.36,18.26-18.36s18.26,7.75,18.26,18.36-7.75,18.36-18.26,18.36S619.69,337.25,619.69,326.69Zm30.18,0c0-7.29-5.08-12.55-11.91-12.55s-11.91,5.25-11.91,12.55,5.08,12.55,11.91,12.55S649.87,334,649.87,326.69Z" transform="translate(-54.95 -53.91)"/><path class="cls-1" d="M673.22,308.84h6.3v30.1h17.73v5.61h-24V308.84Z" transform="translate(-54.95 -53.91)"/><path class="cls-1" d="M709.5,326.69c0-10.56,7.75-18.36,18.26-18.36S746,316.08,746,326.69s-7.75,18.36-18.26,18.36S709.5,337.25,709.5,326.69Zm30.17,0c0-7.29-5.08-12.55-11.91-12.55s-11.91,5.25-11.91,12.55,5.08,12.55,11.91,12.55S739.67,334,739.67,326.69Zm-9.44-27.75h7.12l-8.43,7h-5.23Z" transform="translate(-54.95 -53.91)"/><path class="cls-1" d="M786.18,326.28h6v14.23a20.77,20.77,0,0,1-13.27,4.54c-10.51,0-18.26-7.7-18.26-18.36s7.75-18.36,18.36-18.36c5.67,0,10.41,2,13.61,5.82l-4,4.08a12.24,12.24,0,0,0-9.35-4.08c-7.22,0-12.3,5.15-12.3,12.55,0,7.24,5.08,12.55,12.25,12.55a13.11,13.11,0,0,0,7-1.84Z" transform="translate(-54.95 -53.91)"/><path class="cls-1" d="M810.74,308.84H817v35.71h-6.3Z" transform="translate(-54.95 -53.91)"/><path class="cls-1" d="M834.08,326.69c0-10.66,7.75-18.36,18.16-18.36a16.78,16.78,0,0,1,13.42,6l-4.07,4a11.62,11.62,0,0,0-9.06-4.18c-7,0-12.11,5.2-12.11,12.55s5.08,12.55,12.11,12.55a11.55,11.55,0,0,0,9.06-4.23l4.07,4.08c-3.15,3.88-7.89,6-13.46,6C841.83,345.06,834.08,337.35,834.08,326.69Z" transform="translate(-54.95 -53.91)"/><path class="cls-1" d="M878.89,326.69c0-10.56,7.75-18.36,18.26-18.36s18.26,7.75,18.26,18.36-7.75,18.36-18.26,18.36S878.89,337.25,878.89,326.69Zm30.17,0c0-7.29-5.08-12.55-11.91-12.55s-11.91,5.25-11.91,12.55,5.08,12.55,11.91,12.55S909.06,334,909.06,326.69Z" transform="translate(-54.95 -53.91)"/><path class="cls-1" d="M956.1,308.84h14.82c11,0,18.5,7.14,18.5,17.85s-7.51,17.85-18.5,17.85H956.1Zm14.53,30.1c7.56,0,12.45-4.85,12.45-12.24s-4.89-12.24-12.45-12.24H962.4v24.48Z" transform="translate(-54.95 -53.91)"/><path class="cls-1" d="M1031.85,339v5.56h-25.43V308.84h24.75v5.56h-18.45v9.28h16.37v5.46h-16.37V339Z" transform="translate(-54.95 -53.91)"/><path class="cls-1" d="M1072.88,308.84h6.3v35.71h-6.3Z" transform="translate(-54.95 -53.91)"/><path class="cls-1" d="M1128.78,308.84v35.71h-5.18l-18.7-24.18v24.18h-6.25V308.84h5.18l18.7,24.18V308.84Z" transform="translate(-54.95 -53.91)"/><path class="cls-1" d="M1145.35,340.77l2.18-5.15a18.14,18.14,0,0,0,11.19,3.93c5.28,0,7.51-2,7.51-4.64,0-7.7-20.15-2.65-20.15-15.92,0-5.76,4.36-10.66,13.66-10.66a20.58,20.58,0,0,1,11.28,3.16l-2,5.15a18.1,18.1,0,0,0-9.35-2.81c-5.23,0-7.36,2.14-7.36,4.85,0,7.6,20.1,2.65,20.1,15.76,0,5.71-4.41,10.61-13.71,10.61C1153.44,345.06,1148.16,343.32,1145.35,340.77Z" transform="translate(-54.95 -53.91)"/><path class="cls-1" d="M1214.42,339v5.56H1189V308.84h24.75v5.56h-18.45v9.28h16.37v5.46h-16.37V339Z" transform="translate(-54.95 -53.91)"/><path class="cls-1" d="M1238.64,314.45H1227.4v-5.61h28.77v5.61h-11.24v30.1h-6.3v-30.1Z" transform="translate(-54.95 -53.91)"/><path class="cls-1" d="M1268.33,326.69c0-10.56,7.75-18.36,18.26-18.36s18.26,7.75,18.26,18.36-7.75,18.36-18.26,18.36S1268.33,337.25,1268.33,326.69Zm30.18,0c0-7.29-5.08-12.55-11.91-12.55s-11.91,5.25-11.91,12.55,5.08,12.55,11.91,12.55S1298.51,334,1298.51,326.69Z" transform="translate(-54.95 -53.91)"/><path class="cls-1" d="M1319,340.77l2.18-5.15a18.14,18.14,0,0,0,11.19,3.93c5.28,0,7.51-2,7.51-4.64,0-7.7-20.15-2.65-20.15-15.92,0-5.76,4.36-10.66,13.66-10.66a20.58,20.58,0,0,1,11.28,3.16l-2,5.15a18.1,18.1,0,0,0-9.35-2.81c-5.23,0-7.36,2.14-7.36,4.85,0,7.6,20.1,2.65,20.1,15.76,0,5.71-4.41,10.61-13.71,10.61C1327.09,345.06,1321.81,343.32,1319,340.77Z" transform="translate(-54.95 -53.91)"/></g><polygon class="cls-2" points="1062.32 230.02 1222.27 0 1294.27 0 1136.26 230.02 1062.32 230.02"/><polygon class="cls-2" points="1294.27 233.89 1134.32 3.87 1062.32 3.87 1220.34 233.89 1294.27 233.89"/></svg>