<svg xmlns="http://www.w3.org/2000/svg" xmlns:xlink="http://www.w3.org/1999/xlink" version="1.1" x="0px" y="0px" viewBox="0 0 501.18 366.59" style="enable-background:new 0 0 501.18 366.59;" xml:space="preserve">
<style type="text/css">
	.st0{fill:#E6F5FA;}
	.st1{fill:#D4F3FC;}
	.st2{fill:#90B2BA;}
	.st3{fill:#ADADAD;}
	.st4{fill:#FFC397;}
	.st5{fill:#424242;}
	.st6{fill:#333333;}
	.st7{fill:#FBCC02;}
	.st8{fill:#F9AE06;}
	.st9{fill:#FFE36C;}
	.st10{fill:#FFFFFF;}
	.st11{fill:none;}
	.st12{fill:#111D36;}
	.st13{fill:#D97F48;}
	.st14{fill:#001821;}
	.st15{fill:#01293D;}
	.st16{fill:none;stroke:#01141C;stroke-miterlimit:10;}
	.st17{fill:#001923;}
	.st18{fill:none;stroke:#01293D;stroke-miterlimit:10;}
	.st19{fill:none;stroke:#30ADED;stroke-miterlimit:10;}
	.st20{fill:#30ADED;}
	.st21{fill:none;stroke:#00678D;stroke-width:1.4581;stroke-miterlimit:10;}
	.st22{fill:#FFCC05;}
	.st23{fill:#1384BC;}
	.st24{fill:#F7A771;}
	.st25{fill:none;stroke:#EAB600;stroke-width:1.4581;stroke-miterlimit:10;}
</style>
<g id="OBJECTS">
	<g>
		<g>
			<path class="st0" d="M487.53,234.76c0-118.76-96.28-215.04-215.04-215.04S57.45,115.99,57.45,234.76     c0,49.86,16.97,95.75,45.45,132.22h339.18C470.56,330.51,487.53,284.62,487.53,234.76z"/>
		</g>
	</g>
	<g>
		<g>
			<path class="st1" d="M398.9,41.2c-13.93,0.23-32.33,9.59-30.1,39.34c1.94,25.9,17.5,30.85,15.68,33.99     c-1.82,3.14-8.27,6.73-13.64,7.9c-5.36,1.17-18.85,9.49-25.32,12.95c-10.45,5.59-16.83,41.64-14.37,59.89     c1.8,13.36,8.5,21.18,21.42,25.97c12.93,4.79,43.02-2.65,52.15-4.44c2.04,0.83,27.39,9.83,41.78,9.93     c15.83,0.11,25.14-17.59,25.34-36.92c0.25-24.44-8.89-48.48-18.62-56.83c-3.4-2.91-12.09-6.86-17.14-10.7     c-7.65-5.82-11.21-11.57-9.08-14.59c3.53-5.02,9.45-9.64,9.77-28.07C437.23,53.77,423.34,40.79,398.9,41.2z"/>
		</g>
		<g>
			<path class="st2" d="M384.58,108.92c0,0,3.85,8.63,8.33,15.24c4.48,6.6,8.33,19.84,8.33,19.84s3.93-13.34,7.09-19.39     c2.31-4.44,9-16.88,9-16.88L384.58,108.92z"/>
		</g>
		<g>
			<path class="st3" d="M378.15,69.14c-0.4-0.68,4.07-15.52,23.08-15.13c19.01,0.39,22.56,8.43,25.34,16.53     C429.36,78.64,378.15,69.14,378.15,69.14z"/>
		</g>
		<g>
			<g>
				<g>
					<path class="st4" d="M398.32,61.98c-10.55,1.88-15.27-0.23-17.06,10.82c-1.8,11.06-2.77,21.87,2.44,28.51       c5.2,6.64,11.02,11.02,18.65,10.94c7.63-0.08,12.6-2.11,16.19-8.47c3.59-6.36,5.98-17.57,6.42-27.13       C425.4,67.09,408.37,60.19,398.32,61.98z"/>
				</g>
			</g>
			<g>
				<g>
					<path class="st5" d="M386.98,104.62c0,0,3.71-14.28,8.34-18.92c4.34-4.36,12.4-4.03,15.83,3.12       c3.54,7.38,7.12,17.77,7.12,17.77L386.98,104.62z"/>
				</g>
			</g>
			<g>
				<g>
					<path class="st6" d="M420.35,67.27c-3.94-4.68-14.79-3.76-17.98-3.38c-3.19-0.38-14.05-1.3-17.98,3.38       c-4.64,5.51-8.39,19.71-4.79,26.7c3.6,6.99,12.2,16.55,12.2,16.55l1.02-4.8c0,0-6.84-4.44-7.66-12.28       c-0.82-7.84-3.03-20.23,3.18-24.37c1.84-1.23,5.37-1.71,8.54-1.89c1.76-0.1,8.9-0.1,10.47-0.03c3.29,0.15,7.12,0.62,9.06,1.92       c6.21,4.14,4,16.53,3.18,24.37s-7.66,12.28-7.66,12.28l1.02,4.8c0,0,8.6-9.56,12.2-16.55       C428.74,86.97,424.98,72.77,420.35,67.27z"/>
				</g>
			</g>
			<g>
				<g>
					<g>
						<path class="st5" d="M407.6,59.37h-11.25c-12.02,0-20.6,6.17-20.17,16.81c0.43,10.64-0.14,22.62,5.45,30.01        c5.59,7.38,14.12,12.05,19.95,12.09c6,0.05,15.17-4.71,20.75-12.09c5.59-7.38,5.02-19.37,5.45-30.01        C428.2,65.54,419.62,59.37,407.6,59.37z M420,98.84c-2.87,6.91-13.42,13.04-13.42,13.04l-4.24,0.34v0.04l-0.22-0.02        l-0.22,0.02v-0.04l-4.24-0.34c0,0-10.55-6.14-13.42-13.04c-2.87-6.91-2.47-24.01-0.81-27.16c3.4-6.46,10.47-6.29,18.68-6.28        c8.22,0,15.29-0.18,18.68,6.28C422.47,74.83,422.87,91.93,420,98.84z"/>
					</g>
				</g>
			</g>
			<g>
				<g>
					<path class="st7" d="M411.44,96.9c-1.92-3.41-2.87-9.92-9.48-9.92c-6.6,0-7.23,6.5-9.15,9.92c-1.92,3.41-4.31,10.68,0,14.83       c4.31,4.15,9.15,3.92,9.15,3.92s5.17,0.24,9.48-3.92C415.75,107.58,413.35,100.32,411.44,96.9z"/>
				</g>
			</g>
			<g>
				<g>
					<ellipse class="st8" cx="401.98" cy="107.72" rx="9.17" ry="9.1"/>
				</g>
			</g>
			<g>
				<g>
					<polygon class="st8" points="366.85,104.15 370.43,100.41 387.59,120.4 380.83,124.34      "/>
				</g>
			</g>
			<g>
				<g>
					<g>
						<g>
							<path class="st8" d="M386.98,104.62c4.35,5.88,4.03,13.66,0.6,15.78c-5.06,3.14-13.58,2.94-17.94-2.94         c-4.35-5.88-4-13.52,0.78-17.06C375.22,96.86,382.63,98.75,386.98,104.62z"/>
						</g>
					</g>
				</g>
				<g>
					<g>
						<g>
							<path class="st7" d="M381.56,108.53c4.04,5.45,3.71,12.53-0.73,15.81c-4.44,3.29-11.3,1.54-15.34-3.91         c-4.04-5.45-3.71-12.53,0.73-15.81C370.65,101.33,377.52,103.08,381.56,108.53z"/>
						</g>
					</g>
				</g>
				<g>
					<g>
						<g>
							<path class="st9" d="M379.88,109.77c3.19,4.31,2.94,9.91-0.57,12.51c-3.51,2.6-8.95,1.22-12.14-3.09         c-3.19-4.31-2.94-9.91,0.57-12.51C371.25,104.08,376.69,105.46,379.88,109.77z"/>
						</g>
					</g>
				</g>
				<g>
					<g>
						<g>
							<path class="st10" d="M374.64,120.89c-2.01,0-4.17-1.09-5.63-3.07c-1.08-1.45-1.63-3.16-1.55-4.82c0.08-1.68,0.79-3.1,2.01-4         c1.21-0.9,2.78-1.17,4.41-0.75c1.6,0.41,3.08,1.43,4.15,2.88l0,0c1.08,1.45,1.63,3.16,1.55,4.82c-0.08,1.68-0.79,3.1-2,4         C376.72,120.59,375.7,120.89,374.64,120.89z M372.4,108.76c-0.94,0-1.81,0.27-2.53,0.81c-1.05,0.78-1.66,2.01-1.73,3.48         c-0.07,1.49,0.43,3.05,1.41,4.37c2.01,2.71,5.42,3.6,7.6,1.99c1.05-0.78,1.66-2.01,1.73-3.48c0.07-1.49-0.43-3.05-1.42-4.37         l0,0c-0.98-1.32-2.32-2.26-3.77-2.63C373.27,108.81,372.83,108.76,372.4,108.76z"/>
						</g>
					</g>
				</g>
				<g>
					<g>
						<g>
							<path class="st5" d="M377.22,101.67c0,0,4.42,2.2,7.16,7.26c1.82,3.36,2.99,9.12,0,13.34c1.39-0.8,3.21-1.87,3.21-1.87         s3.24-6.06-0.87-12.69C382.85,101.49,377.22,101.67,377.22,101.67z"/>
						</g>
					</g>
				</g>
			</g>
			<g>
				<g>
					<g>
						<g>
							<path class="st8" d="M417.24,104.62c-4.35,5.88-4.03,13.66-0.6,15.78c5.06,3.14,13.58,2.94,17.94-2.94         c4.35-5.88,4-13.52-0.78-17.06C429.01,96.86,421.6,98.75,417.24,104.62z"/>
						</g>
					</g>
				</g>
				<g>
					<g>
						<polygon class="st8" points="438.01,104.62 433.79,100.41 416.64,120.4 423.4,124.34       "/>
					</g>
				</g>
				<g>
					<g>
						<g>
							<path class="st7" d="M422.67,108.53c-4.04,5.45-3.71,12.53,0.73,15.81c4.44,3.29,11.3,1.54,15.34-3.91         c4.04-5.45,3.71-12.53-0.73-15.81C433.57,101.33,426.71,103.08,422.67,108.53z"/>
						</g>
					</g>
				</g>
				<g>
					<g>
						<g>
							<path class="st9" d="M424.35,109.77c-3.19,4.31-2.94,9.91,0.57,12.51c3.51,2.6,8.95,1.22,12.14-3.09         c3.19-4.31,2.94-9.91-0.57-12.51C432.98,104.08,427.54,105.46,424.35,109.77z"/>
						</g>
					</g>
				</g>
				<g>
					<g>
						<g>
							<path class="st10" d="M429.58,120.89c2.01,0,4.17-1.09,5.63-3.07c1.08-1.45,1.63-3.16,1.55-4.82c-0.08-1.68-0.79-3.1-2.01-4         c-1.21-0.9-2.78-1.17-4.41-0.75c-1.6,0.41-3.08,1.43-4.15,2.88l0,0c-1.08,1.45-1.63,3.16-1.55,4.82c0.08,1.68,0.79,3.1,2,4         C427.51,120.59,428.52,120.89,429.58,120.89z M431.82,108.76c0.94,0,1.81,0.27,2.53,0.81c1.05,0.78,1.66,2.01,1.73,3.48         c0.07,1.49-0.43,3.05-1.41,4.37c-2.01,2.71-5.42,3.6-7.6,1.99c-1.05-0.78-1.66-2.01-1.73-3.48         c-0.07-1.49,0.43-3.05,1.42-4.37l0,0c0.98-1.32,2.32-2.26,3.77-2.63C430.96,108.81,431.4,108.76,431.82,108.76z"/>
						</g>
					</g>
				</g>
				<g>
					<g>
						<g>
							<path class="st5" d="M427.01,101.67c0,0-4.42,2.2-7.16,7.26c-1.82,3.36-2.98,9.12,0,13.34c-1.39-0.8-3.21-1.87-3.21-1.87         s-3.24-6.06,0.87-12.69C421.38,101.49,427.01,101.67,427.01,101.67z"/>
						</g>
					</g>
				</g>
			</g>
		</g>
		<g>
			<path class="st11" d="M386.22,347.39c-0.07,0.63-0.13,1.25-0.2,1.88C386.09,348.64,386.15,348.02,386.22,347.39z"/>
			<path class="st11" d="M385.91,350.33c-0.07,0.64-0.14,1.29-0.21,1.93C385.77,351.62,385.84,350.97,385.91,350.33z"/>
			<path class="st11" d="M386.89,340.75c-0.09,0.92-0.19,1.85-0.28,2.79C386.71,342.6,386.8,341.67,386.89,340.75z"/>
			<path class="st11" d="M386.53,344.33c-0.07,0.68-0.14,1.37-0.21,2.05C386.39,345.69,386.46,345.01,386.53,344.33z"/>
			<path class="st11" d="M384.9,359.64c-0.07,0.62-0.14,1.24-0.2,1.85C384.77,360.87,384.83,360.26,384.9,359.64z"/>
			<path class="st11" d="M385.61,353.1c-0.09,0.84-0.18,1.67-0.27,2.5C385.43,354.77,385.52,353.94,385.61,353.1z"/>
			<path class="st11" d="M385.31,355.94c-0.1,0.94-0.2,1.87-0.3,2.79C385.1,357.81,385.2,356.88,385.31,355.94z"/>
			<path class="st11" d="M419.69,360.87c-0.06-0.47-0.12-0.93-0.18-1.39C419.57,359.93,419.63,360.4,419.69,360.87z"/>
			<path class="st11" d="M387.17,337.98c-0.07,0.71-0.14,1.42-0.21,2.13C387.03,339.39,387.1,338.68,387.17,337.98z"/>
			<path class="st11" d="M388.37,324.01c-0.04,0.57-0.08,1.15-0.13,1.73C388.29,325.16,388.33,324.58,388.37,324.01z"/>
			<path class="st11" d="M418.87,354.46c-0.02-0.15-0.04-0.3-0.06-0.45C418.83,354.16,418.85,354.31,418.87,354.46z"/>
			<path class="st11" d="M388.53,321.66c-0.03,0.5-0.07,1.01-0.1,1.52C388.46,322.67,388.5,322.16,388.53,321.66z"/>
			<path class="st11" d="M419.13,356.5c-0.04-0.32-0.08-0.64-0.12-0.95C419.05,355.86,419.09,356.18,419.13,356.5z"/>
			<path class="st11" d="M388.19,326.44c-0.06,0.82-0.13,1.65-0.2,2.49C388.06,328.08,388.12,327.25,388.19,326.44z"/>
			<path class="st11" d="M387.95,329.41c-0.06,0.7-0.12,1.41-0.18,2.12C387.83,330.81,387.89,330.11,387.95,329.41z"/>
			<path class="st11" d="M387.43,335.23c-0.05,0.59-0.11,1.18-0.17,1.78C387.31,336.41,387.37,335.82,387.43,335.23z"/>
			<path class="st11" d="M387.68,332.45c-0.05,0.58-0.1,1.17-0.16,1.76C387.58,333.61,387.63,333.03,387.68,332.45z"/>
			<path class="st11" d="M418.5,351.54c-0.02-0.17-0.04-0.35-0.07-0.52C418.45,351.19,418.48,351.36,418.5,351.54z"/>
			<path class="st11" d="M419.76,361.38c0.01,0.07,0.02,0.14,0.03,0.21l0,0C419.77,361.52,419.77,361.45,419.76,361.38     C419.76,361.38,419.76,361.38,419.76,361.38z"/>
			<path class="st11" d="M388.8,316.63c-0.03,0.65-0.06,1.34-0.1,2.03C388.74,317.97,388.78,317.28,388.8,316.63z"/>
			<path class="st11" d="M418.67,352.94c-0.02-0.16-0.04-0.33-0.06-0.49C418.63,352.61,418.65,352.77,418.67,352.94z"/>
			<path class="st11" d="M400.06,289.48c0,0-3.31,37.92-6.33,72.1h14.31c-2.99-34.48-5.83-72.26-5.83-72.26L400.06,289.48z"/>
			<path class="st11" d="M388.67,319.36c-0.03,0.49-0.06,0.98-0.09,1.49C388.61,320.34,388.64,319.84,388.67,319.36z"/>
			<path class="st1" d="M384.7,361.49c0.07-0.61,0.14-1.23,0.2-1.85c0.03-0.3,0.07-0.6,0.1-0.9c0.1-0.92,0.2-1.86,0.3-2.79     c0.01-0.11,0.02-0.23,0.04-0.34c0.09-0.83,0.18-1.66,0.27-2.5c0.03-0.28,0.06-0.56,0.09-0.84c0.07-0.64,0.14-1.29,0.21-1.93     c0.04-0.35,0.07-0.71,0.11-1.06c0.07-0.63,0.13-1.25,0.2-1.88c0.04-0.34,0.07-0.68,0.11-1.01c0.07-0.68,0.14-1.37,0.21-2.05     c0.03-0.26,0.05-0.53,0.08-0.79c0.09-0.93,0.19-1.86,0.28-2.79c0.02-0.21,0.04-0.43,0.06-0.64c0.07-0.71,0.14-1.42,0.21-2.13     c0.03-0.32,0.06-0.65,0.09-0.97c0.06-0.6,0.11-1.19,0.17-1.78c0.03-0.34,0.06-0.69,0.1-1.03c0.05-0.59,0.11-1.18,0.16-1.76     c0.03-0.31,0.06-0.61,0.08-0.92c0.06-0.72,0.12-1.42,0.18-2.12c0.01-0.16,0.03-0.32,0.04-0.48c0.07-0.85,0.14-1.68,0.2-2.49     c0.02-0.24,0.04-0.46,0.05-0.7c0.04-0.58,0.09-1.16,0.13-1.73c0.02-0.28,0.04-0.55,0.06-0.83c0.04-0.52,0.07-1.02,0.1-1.52     c0.02-0.27,0.04-0.55,0.05-0.81c0.03-0.51,0.06-1,0.09-1.49c0.01-0.23,0.03-0.47,0.04-0.69c0.04-0.7,0.07-1.38,0.1-2.03     c0.77-18.68,0.39-38.94,0-40.66c-0.23-0.99-2.8-9.54-4.42-14.28c7.73,6.69,16.38,9.68,24.13,9.8c1.13,0.02,7.89-4.2,9-4.27     c-0.58,3.37-5.99,10.89-5.81,14.74c0.31,6.42,4.85,53.93,6.57,67.79c0.05,0.41,0.1,0.83,0.16,1.27c0.02,0.17,0.04,0.34,0.07,0.52     c0.04,0.3,0.08,0.6,0.12,0.91c0.02,0.16,0.04,0.33,0.06,0.49c0.04,0.35,0.09,0.71,0.14,1.07c0.02,0.15,0.04,0.3,0.06,0.45     c0.05,0.36,0.09,0.72,0.14,1.09c0.04,0.32,0.08,0.63,0.12,0.95c0.12,0.96,0.25,1.95,0.38,2.98c0.06,0.46,0.12,0.92,0.18,1.39     c0.02,0.17,0.04,0.34,0.07,0.51c0,0,0,0,0,0c0.01,0.07,0.02,0.14,0.03,0.2h33.36c-0.7-27.19-1.58-69.75-2.84-95.34     c-1.63-33.11-4.46-53.35-4.46-53.35l-92.35-3.41c0,0,0,11.1,0,36.25s0.36,43.42-2.07,70.34c-1.05,11.59-1.99,28.82-2.85,45.27     c0,0.08-0.01,0.16-0.01,0.24h36.13C384.69,361.55,384.7,361.52,384.7,361.49z"/>
			<path class="st2" d="M419.76,361.38c-0.02-0.17-0.04-0.34-0.07-0.51c-0.06-0.47-0.12-0.93-0.18-1.39     c-0.13-1.03-0.26-2.03-0.38-2.98c-0.04-0.32-0.08-0.64-0.12-0.95c-0.05-0.37-0.09-0.73-0.14-1.09c-0.02-0.15-0.04-0.3-0.06-0.45     c-0.05-0.37-0.09-0.72-0.14-1.07c-0.02-0.16-0.04-0.33-0.06-0.49c-0.04-0.31-0.08-0.61-0.12-0.91c-0.02-0.17-0.04-0.35-0.07-0.52     c-0.06-0.44-0.11-0.87-0.16-1.27c-1.72-13.86-6.27-61.37-6.57-67.79c-0.18-3.85,5.23-11.37,5.81-14.74     c-1.1,0.07-7.86,4.29-9,4.27c-7.75-0.11-16.4-3.11-24.13-9.8c1.62,4.74,4.2,13.3,4.42,14.28c0.39,1.72,0.77,21.98,0,40.66     c-0.03,0.65-0.06,1.34-0.1,2.03c-0.01,0.23-0.03,0.46-0.04,0.69c-0.03,0.49-0.06,0.98-0.09,1.49c-0.02,0.27-0.03,0.54-0.05,0.81     c-0.03,0.5-0.07,1.01-0.1,1.52c-0.02,0.28-0.04,0.55-0.06,0.83c-0.04,0.57-0.08,1.15-0.13,1.73c-0.02,0.23-0.03,0.46-0.05,0.7     c-0.06,0.82-0.13,1.65-0.2,2.49c-0.01,0.16-0.03,0.32-0.04,0.48c-0.06,0.7-0.12,1.41-0.18,2.12c-0.03,0.3-0.05,0.61-0.08,0.92     c-0.05,0.58-0.1,1.17-0.16,1.76c-0.03,0.34-0.06,0.68-0.1,1.03c-0.05,0.59-0.11,1.18-0.17,1.78c-0.03,0.32-0.06,0.64-0.09,0.97     c-0.07,0.71-0.14,1.42-0.21,2.13c-0.02,0.21-0.04,0.43-0.06,0.64c-0.09,0.93-0.19,1.85-0.28,2.79c-0.03,0.26-0.05,0.53-0.08,0.79     c-0.07,0.68-0.14,1.36-0.21,2.05c-0.04,0.34-0.07,0.68-0.11,1.01c-0.07,0.63-0.13,1.25-0.2,1.88c-0.04,0.35-0.07,0.71-0.11,1.06     c-0.07,0.65-0.14,1.29-0.21,1.93c-0.03,0.28-0.06,0.56-0.09,0.84c-0.09,0.84-0.18,1.67-0.27,2.5c-0.01,0.11-0.02,0.23-0.04,0.34     c-0.1,0.94-0.2,1.87-0.3,2.79c-0.03,0.3-0.07,0.6-0.1,0.9c-0.07,0.62-0.14,1.24-0.2,1.85c0,0.03-0.01,0.07-0.01,0.1h9.04     c3.02-34.18,6.33-72.1,6.33-72.1l2.15-0.15c0,0,2.84,37.78,5.83,72.26h11.75C419.77,361.52,419.77,361.45,419.76,361.38z"/>
			<path class="st2" d="M418.43,351.02c-0.06-0.44-0.11-0.87-0.16-1.27C418.32,350.15,418.38,350.58,418.43,351.02z"/>
			<path class="st2" d="M384.69,361.59c0-0.03,0.01-0.07,0.01-0.1C384.7,361.52,384.69,361.55,384.69,361.59L384.69,361.59z"/>
			<path class="st2" d="M419.76,361.38c-0.02-0.17-0.04-0.34-0.07-0.51C419.71,361.04,419.73,361.21,419.76,361.38z"/>
			<path class="st2" d="M419.51,359.48c-0.13-1.03-0.26-2.02-0.38-2.98C419.25,357.45,419.38,358.45,419.51,359.48z"/>
			<path class="st2" d="M387.99,328.93c-0.01,0.16-0.03,0.32-0.04,0.48C387.96,329.25,387.97,329.09,387.99,328.93z"/>
			<path class="st2" d="M388.24,325.74c-0.02,0.23-0.03,0.46-0.05,0.7C388.21,326.2,388.22,325.97,388.24,325.74z"/>
			<path class="st2" d="M387.76,331.53c-0.03,0.3-0.05,0.61-0.08,0.92C387.71,332.14,387.74,331.83,387.76,331.53z"/>
			<path class="st2" d="M387.52,334.21c-0.03,0.34-0.06,0.68-0.1,1.03C387.46,334.89,387.49,334.55,387.52,334.21z"/>
			<path class="st2" d="M419.01,355.55c-0.05-0.37-0.09-0.73-0.14-1.09C418.92,354.82,418.96,355.18,419.01,355.55z"/>
			<path class="st2" d="M388.43,323.18c-0.02,0.28-0.04,0.55-0.06,0.83C388.39,323.73,388.41,323.46,388.43,323.18z"/>
			<path class="st2" d="M388.71,318.66c-0.01,0.23-0.03,0.46-0.04,0.69C388.68,319.13,388.7,318.89,388.71,318.66z"/>
			<path class="st2" d="M418.61,352.45c-0.04-0.31-0.08-0.61-0.12-0.91C418.53,351.83,418.57,352.14,418.61,352.45z"/>
			<path class="st2" d="M418.81,354.01c-0.05-0.37-0.09-0.72-0.14-1.07C418.72,353.29,418.77,353.64,418.81,354.01z"/>
			<path class="st2" d="M388.58,320.84c-0.02,0.27-0.03,0.54-0.05,0.81C388.55,321.38,388.57,321.11,388.58,320.84z"/>
			<path class="st2" d="M385.7,352.26c-0.03,0.28-0.06,0.56-0.09,0.84C385.64,352.82,385.67,352.54,385.7,352.26z"/>
			<path class="st2" d="M386.02,349.27c-0.04,0.35-0.07,0.71-0.11,1.06C385.95,349.98,385.98,349.62,386.02,349.27z"/>
			<path class="st2" d="M385.34,355.6c-0.01,0.11-0.02,0.23-0.04,0.34C385.32,355.83,385.33,355.72,385.34,355.6z"/>
			<path class="st2" d="M386.96,340.11c-0.02,0.21-0.04,0.43-0.06,0.64C386.92,340.53,386.94,340.32,386.96,340.11z"/>
			<path class="st2" d="M387.26,337.01c-0.03,0.32-0.06,0.64-0.09,0.97C387.2,337.65,387.23,337.33,387.26,337.01z"/>
			<path class="st2" d="M385,358.73c-0.03,0.3-0.07,0.6-0.1,0.9C384.94,359.33,384.97,359.04,385,358.73z"/>
			<path class="st2" d="M386.32,346.38c-0.04,0.34-0.07,0.68-0.11,1.01C386.25,347.05,386.29,346.72,386.32,346.38z"/>
			<path class="st2" d="M386.61,343.54c-0.03,0.26-0.05,0.53-0.08,0.79C386.56,344.06,386.59,343.8,386.61,343.54z"/>
		</g>
		<g>
			<path class="st2" d="M459.11,184.13c-6.02-4.59-13.5-3.82-13.5-3.82s-1.28-12.08,0.2-20.66c2.33-13.47,5.82-17.62,5.82-17.62     c-12.22,2.95-16.1,28.5-17.59,33.22c-2.72,8.58-31.72,5.42-42.8,4.52c-9.09-0.74-20.39-6.04-22.86-13.84     c-1.5-4.72-4.94-20.95-17.16-23.9c0,0,5.09,4.77,7.42,18.24c1.48,8.57,0.68,14.99,0.68,14.99s-8.38-1.81-14.55,5.63     c-2.89,3.48-1.94,11.32-1.94,11.32s8.73-8.38,13.39-8.93c4.66-0.55,16.91,0.83,19.94,1.88c3.29,1.14,39.13,4.86,47.12,5.53     c5.78,0.48,12.83-1.34,16.12-2.48c3.03-1.05,8.15-1.39,12.8-0.84c4.66,0.55,11.41,4.85,11.41,4.85S461.45,185.92,459.11,184.13z"/>
		</g>
		<g>
			<g>
				<path class="st8" d="M433.07,189.55c-1.29-0.74-2.73-0.42-4.12-0.33c-3.11,0.19-6.1-0.57-9.06-1.41      c-2.14-0.6-3.93-1.33-5.66-2.58c-3.38,2.23-5.54,4.16-5.54,4.16s2.84,0.35,9.24,2.17c5.59,1.59,13.9,0.07,13.9,0.07      s4.66,3.93,6.62,7.28c1.82,3.1,3.88,3.33,4.47,1.59C440.03,200.65,434.97,190.65,433.07,189.55z"/>
			</g>
			<g>
				<g>
					<path class="st7" d="M448.19,187.05c1.16,0.65,3.06,1.93,4.8,3.69c1.47,1.48,2.99,2.37,4.65,2.6c0.5-0.81,0.46-2.06-0.47-3.15       c-3.89-4.53-9.83-9.89-22.37-11.44c-7.55-0.93-15.47,3.11-20.58,6.48c1.74,1.24,3.52,1.98,5.66,2.58       c2.96,0.83,5.96,1.6,9.06,1.41c1.39-0.08,2.84-0.41,4.12,0.33c1.89,1.1,6.96,11.1,9.84,10.95c0.23-0.66,0.25-1.58-0.04-2.76       c-0.8-3.27-4.27-8.33-4.27-8.33s0.92-0.91,2.23,0.15c1.31,1.05,2.76,2.22,5.38,6.07c1.49,2.19,2.63,3.41,4.08,3.27       c0.55-0.52,0.75-1.55,0.28-3.05c-1.38-4.44-4.15-8.37-4.15-8.37S447.02,186.39,448.19,187.05z"/>
				</g>
				<g>
					<path class="st8" d="M457.64,193.34c-1.66-0.23-3.18-1.11-4.65-2.6c-1.75-1.76-3.64-3.04-4.8-3.69       c-1.16-0.65-1.75,0.44-1.75,0.44s4.82,3.54,7.73,5.87C455.73,194.62,457.06,194.28,457.64,193.34z"/>
				</g>
			</g>
			<g>
				<path class="st8" d="M446.76,195.29c-2.62-3.86-4.07-5.19-5.38-6.24c-1.31-1.05-2.76,0.36-2.76,0.36s5.49,5.06,7.99,8.22      c1.32,1.67,2.89,2.03,3.7,1.27C448.86,199.05,448.25,197.49,446.76,195.29z"/>
			</g>
		</g>
		<g>
			<path class="st2" d="M446.51,226.73c0,0-16.21,0.83-32.48-4.33c-11.67-3.7-18.67-8.28-25.23-12.77     c-3.24,1.92-6.64,4.09-10.12,5.68c5.35,5.8,17.33,13.38,32.06,17.12c22.12,5.62,36.18,0.72,36.18,0.72L446.51,226.73z"/>
		</g>
		<g>
			<g>
				<path class="st7" d="M371.01,196.16c4.65,2.36,9.39,4.28,11.73,5.19l4.68-14.71c0,0-12.25-7.57-20.35-7.99      c-5.48-0.29-10.18,2.68-12.65,4.64C359.27,189,364.51,192.86,371.01,196.16z"/>
			</g>
			<g>
				<path class="st8" d="M352.57,184.9c0,0,2.04,4.66,10.48,10.77c8.44,6.11,18.58,9.17,18.58,9.17l1.11-3.49      c-2.34-0.91-7.08-2.83-11.73-5.19c-6.5-3.3-11.74-7.16-16.58-12.88C353.25,184.2,352.57,184.9,352.57,184.9z"/>
			</g>
		</g>
		<g>
			<path class="st2" d="M337.59,211.34c0,0,3.45-1.89,9.27,0.15c5.82,2.04,7.61,6.26,15.81,6.26c8.2,0,26.13-8.11,26.13-8.11     l4.74,5.49c0,0-11.18,9.16-27.03,8.73C342.33,223.19,337.59,211.34,337.59,211.34z"/>
		</g>
		<g>
			<path class="st2" d="M383.42,355.8c0,0-3.39,1.72-8.29,2.72c-4.91,0.99-7.99,2.17-7.99,2.17s5.58,3.27,10.03,1.58     C381.61,360.57,383.42,355.8,383.42,355.8z"/>
		</g>
		<g>
			<path class="st2" d="M420.72,355.8c0,0,3.39,1.72,8.29,2.72c4.91,0.99,7.99,2.17,7.99,2.17s-5.58,3.27-10.03,1.58     C422.53,360.57,420.72,355.8,420.72,355.8z"/>
		</g>
		<g>
			<path class="st2" d="M413.64,280.02c0,0,2.71-7.57,7.08-9.7c4.37-2.13,7.54-4.07,7.54-4.07s-0.84,5.24-4.72,7.37     C419.66,275.75,413.64,280.02,413.64,280.02z"/>
		</g>
		<g>
			<path class="st2" d="M387.9,280.02c0,0-2.71-7.57-7.08-9.7c-4.37-2.13-7.54-4.07-7.54-4.07s0.84,5.24,4.72,7.37     C381.89,275.75,387.9,280.02,387.9,280.02z"/>
		</g>
		<g>
			<path class="st3" d="M446.92,178.02c0,0,0.62-3.64,3.39-4.51c2.77-0.87,7.65,0,7.65,0S451.67,174.67,446.92,178.02z"/>
		</g>
		<g>
			<path class="st2" d="M357.5,172.37c0,0-0.62-3.6-3.35-4.46c-2.74-0.86-7.57,0-7.57,0S352.79,169.06,357.5,172.37z"/>
		</g>
		<g>
			<path class="st2" d="M353.14,172.37c0,0-2.49-2.01-8.24,0c-5.75,2.01-5.61,6.57-5.61,6.57s2.73-2.97,6.08-4.75     C348.26,172.65,351.69,172.26,353.14,172.37z"/>
		</g>
		<g>
			<path class="st2" d="M450.07,176.83c0,0,2.49-2.01,8.24,0c5.75,2.01,5.61,6.57,5.61,6.57s-2.73-2.97-6.08-4.75     C454.95,177.11,451.52,176.72,450.07,176.83z"/>
		</g>
		<g>
			<path class="st2" d="M436.41,135.28c0,0-3.95,6.52-5.49,14.57c-1.53,8.05,0.58,21.62,0.58,21.62s0.9-16.25,1.89-21.62     C434.38,144.48,436.41,135.28,436.41,135.28z"/>
		</g>
		<g>
			<path class="st2" d="M360.14,133.66c0,0,5.11,5.66,8.14,13.28c3.03,7.62,3.52,21.34,3.52,21.34s-3.95-15.79-5.94-20.88     C363.88,142.31,360.14,133.66,360.14,133.66z"/>
		</g>
		<g>
			<path class="st2" d="M387.9,203.19c0,0,4.21,5.36,9.64,7.92c5.43,2.56,13.61,2.36,13.61,2.36s-4.59-2.13-11.62-5.14     C392.5,205.33,387.9,203.19,387.9,203.19z"/>
		</g>
		<g>
			<path class="st2" d="M356.36,209.96c0,0,7.07-0.79,11.49-1.64c4.42-0.85,11.09-1.14,11.09-1.14s-8.04,4.89-13.59,4.31     C359.81,210.92,356.36,209.96,356.36,209.96z"/>
		</g>
		<g>
			<path class="st12" d="M395.19,80.93c0,1.11-0.9,2.01-2.01,2.01c-1.11,0-2.01-0.9-2.01-2.01c0-1.11,0.9-2.01,2.01-2.01     C394.29,78.92,395.19,79.82,395.19,80.93z"/>
			<path class="st12" d="M413.8,80.93c0,1.11-0.9,2.01-2.01,2.01c-1.11,0-2.01-0.9-2.01-2.01c0-1.11,0.9-2.01,2.01-2.01     C412.9,78.92,413.8,79.82,413.8,80.93z"/>
		</g>
		<path class="st12" d="M405.6,73.56l11.6,3c0,0-0.53-3.25-5.27-4.44C407.19,70.94,405.6,73.56,405.6,73.56z"/>
		<path class="st12" d="M398.4,73.56l-11.6,3c0,0,0.53-3.25,5.27-4.44C396.81,70.94,398.4,73.56,398.4,73.56z"/>
	</g>
	<g>
		<g>
			<g>
				<g>
					<g>
						<g>
							<g>
								<path class="st13" d="M72.34,173.52l-4.26,10.23c0,0,24.52,17.56,44.81,27.65c6.4,3.18,13.83-2.05,13.44-9.18          c0-0.07-0.01-0.15-0.01-0.22c-0.22-3.87-2.76-7.22-6.43-8.47C99.14,186.5,95.09,183.7,72.34,173.52z"/>
							</g>
							<path class="st13" d="M71.33,184.66c0,0-21.21,9.35-29.01-4.22l32.16-7.98L71.33,184.66z"/>
						</g>
						<g>
							<g>
								<path class="st13" d="M137.43,137.1c-10.14,17.37-22.37,42.23-29.09,61.17c-1.73,4.89,0.05,10.36,4.77,12.51          c0.06,0.03,0.11,0.05,0.17,0.08c4.63,2.13,10.1,0.39,12.57-4.06c15.33-27.66,28.98-49.21,28.98-49.21L137.43,137.1z"/>
							</g>
							<path class="st1" d="M137.85,132.31c0,0-15.24,3.24-27.98,40.86l28.68,17.02l10.58-21L137.85,132.31z"/>
						</g>
					</g>
					<g>
						<g>
							<path class="st14" d="M123.75,180.71h-33.1v-5.3h33.1c1.46,0,2.65,1.19,2.65,2.65l0,0         C126.4,179.52,125.21,180.71,123.75,180.71z"/>
						</g>
						<g>
							<path class="st15" d="M103.81,180.69H28.38c-1.76,0-3.33-1.15-3.85-2.83l-13.36-44.68c-0.58-1.85,0.8-3.73,2.74-3.73h71.52         c1.76,0,3.33,1.15,3.85,2.83L103.81,180.69z"/>
							<path class="st10" d="M60.28,153.3c0.56,3.11-1.5,6.08-4.61,6.64c-3.11,0.56-6.08-1.5-6.64-4.61         c-0.56-3.11,1.5-6.08,4.61-6.64C56.75,148.13,59.73,150.2,60.28,153.3z"/>
						</g>
					</g>
				</g>
				<g>
					<g>
						<path class="st13" d="M205.55,185.87c0,0,18.2,65.72,25.63,122.88l12.5-2.37c0,0-3.88-83.76-16.48-135.58L205.55,185.87z"/>
						<path class="st13" d="M243.58,303.51c0,0,18.81,27.77-3.76,40.25c-1.49,0.82-3.36,0.49-4.46-0.81l-0.15-0.17        c-1.21-1.43-1.08-3.52,0.24-4.86c3.21-3.25,7.52-9.99,0.65-18.78c0,0-3.61,0.92-3,8.08c0.16,1.84-1.38,3.4-3.22,3.22h0        c-1.26-0.12-2.29-1.02-2.6-2.24c-1.18-4.72-3.14-16.43,4.41-22.72L243.58,303.51z"/>
					</g>
					<path class="st1" d="M207.92,132.31c0,0,11.64,3.39,24.06,42.72l-28.68,17.02l-6.65-22.86L207.92,132.31z"/>
				</g>
				<g>
					<path class="st1" d="M206.16,131.24l-21.61-8.6l-22.21,0.3l-22.29,8.17c-4.18,1.53-6.53,5.98-5.43,10.3l16.37,64.57h43.85       l15.12-67.55C210.63,135.42,209.02,132.38,206.16,131.24z"/>
					<rect x="150.98" y="205.97" class="st1" width="43.85" height="7.02"/>
					<line class="st1" x1="144.43" y1="180.13" x2="136.91" y2="150.45"/>
					<line class="st1" x1="200.28" y1="181.67" x2="207.26" y2="150.45"/>
				</g>
			</g>
			<g>
				<path class="st15" d="M194.84,212.99h-43.85c0,0-21.25,5.39-35.47,104.91c-2.17,15.17-4.04,29.96-5.65,44.13h41.41l18.3-91.86      l4,1.05l6.75,90.8h38.91l0.81-49.05C220.05,312.98,216.54,233.14,194.84,212.99z"/>
				<line class="st16" x1="173.58" y1="271.23" x2="159.95" y2="265.91"/>
			</g>
			<g>
				<path class="st15" d="M209.49,84.98c-1.94-7.36-2.65-6.04-9.17-20.69c-3.9-8.75-6.92-12.26-8.71-13.68l0,0      c0,0-6.59-7.1-18.39-7.1c-11.26,0-17.78,6.74-17.78,6.74l0,0c-1.71,1.14-4.92,4.44-9.2,14.03c-6.53,14.64-7.23,13.32-9.17,20.69      c-1.94,7.36,0.53,20.94,15.7,23.59c0,0-1.94-1.94-2.65-5.12c0,0,6.35,8.64,14.99,8.11h16.33c8.64,0.53,14.99-8.11,14.99-8.11      c-0.71,3.18-2.65,5.12-2.65,5.12C208.96,105.93,211.43,92.34,209.49,84.98z"/>
				<path class="st13" d="M193.5,126.2l-8.94-3.56l-2.7-23.53c0,0-2.79,2.84-6.49,3.53c-3.7,0.69-7.28-1.48-7.33-1.5      c-0.05-0.03-3.02-2.5-3.02-2.5l-2.68,24.3l-9.75,3.57c0,0,0.63,6.33,21.24,6.33C194.45,132.84,193.5,126.2,193.5,126.2z"/>
				<path class="st17" d="M163.32,99.48c0,0,5.66,10.93,12.4,9.37c7.04-1.64,7.01-10.88,7.01-10.88L163.32,99.48z"/>
				<g>
					<path class="st15" d="M197.52,68.06c0,13.39-10.42,24.24-23.27,24.24c-12.85,0-23.27-10.85-23.27-24.24s10.42-22.5,23.27-22.5       C187.11,45.56,197.52,54.67,197.52,68.06z"/>
				</g>
				<path class="st13" d="M193.48,69.31c0,8.35-1.16,15.55-2.32,20.66c-1.13,5-4.33,8.5-8.84,11.32l-0.82,0.51      c-4.78,2.98-10.94,3.05-15.79,0.18l0,0c-4.89-2.9-8.31-6.71-9.37-12.08c-1.92-9.77-2.13-20.59-2.13-20.59      s-1.82-21.07,19.35-20.66C194.75,49.06,193.48,69.31,193.48,69.31z"/>
				<g>
					<path class="st13" d="M156.52,89.1c-3.73,3.22-11.59-9.54-7.97-12.98c3.61-3.44,6.17,2.16,6.17,2.16l0.73,4.03l1.09,5.43       l0.28,1.22L156.52,89.1z"/>
					<g>
						<g>
							<path class="st18" d="M150.17,80.42c0,0,1.53-3.3,5.08,2.5"/>
						</g>
					</g>
				</g>
				<g>
					<path class="st13" d="M191.15,89.17c3.79,3.16,11.42-9.73,7.75-13.11c-3.67-3.38-6.13,2.26-6.13,2.26l-0.66,4.04l-1,5.44       l-0.26,1.22L191.15,89.17z"/>
					<g>
						<g>
							<path class="st18" d="M197.35,80.39c0,0-1.58-3.28-5.04,2.58"/>
						</g>
					</g>
				</g>
				<path class="st12" d="M154.49,75.87c0,0,8.47-11.45,6.51-23.04c0,0-6.28,3.16-7.92,11.33      C151.44,72.32,154.49,75.87,154.49,75.87z"/>
				<path class="st12" d="M193.84,76.09c0,0-10.18-12.45-8.22-24.05c0,0,6.82,3.94,8.46,12.1S193.84,76.09,193.84,76.09z"/>
				<path class="st15" d="M148.2,67.64h51.27c0,0-5.77-21.72-27.4-23.01C150.45,43.33,148.2,67.64,148.2,67.64z"/>
				<g>
					<g>
						<path class="st15" d="M166.42,77.49c0,1.08-0.87,1.95-1.95,1.95c-1.08,0-1.95-0.87-1.95-1.95c0-1.08,0.87-1.95,1.95-1.95        C165.54,75.54,166.42,76.41,166.42,77.49z"/>
						<path class="st15" d="M184.49,77.49c0,1.08-0.87,1.95-1.95,1.95c-1.08,0-1.95-0.87-1.95-1.95c0-1.08,0.87-1.95,1.95-1.95        C183.62,75.54,184.49,76.41,184.49,77.49z"/>
					</g>
					<path class="st18" d="M172.52,81.74l0,2.63c0,0.66,0.59,1.16,1.22,1.03l1.4-0.29"/>
					<path class="st15" d="M170.27,71.44l-11.83,1.42c0,0,0.95-3.14,5.78-3.68C169.05,68.65,170.27,71.44,170.27,71.44z"/>
					<path class="st15" d="M177.09,71.44l11.83,1.42c0,0-0.95-3.14-5.78-3.68C178.3,68.65,177.09,71.44,177.09,71.44z"/>
					<g>
						<circle class="st19" cx="162.54" cy="77.43" r="8.07"/>
						<circle class="st19" cx="185.41" cy="77.43" r="8.07"/>
						<path class="st19" d="M170.62,78.1c0,0,2.85-4.38,6.72,0"/>
					</g>
					<path class="st10" d="M167.54,89.1h12.88C180.42,89.1,174.38,96.3,167.54,89.1z"/>
				</g>
			</g>
		</g>
		<g>
			<g>
				<path class="st20" d="M266.45,339.79c0,0,10.89-54.06,17.3-68.8c0.58-1.34,2.52-1.16,2.9,0.24c1.54,5.62,3.58,22.17,2.67,70.89      l0.02,19.91h38.23l5.63-47.93c0,0,8.52-66.8-19.22-104.74h-55.6c0,0-28.35,41.24-32.09,98.2c-0.83,12.67-2.26,32.03-3.99,54.46      h39.39L266.45,339.79z"/>
				<line class="st21" x1="274.23" y1="265.91" x2="287.25" y2="271.23"/>
			</g>
			<g>
				<g>
					<polygon class="st22" points="274.08,103.94 247.33,111.29 258.39,202.57 314.5,202.57 325.57,110.89 295.92,103.54      "/>
					<rect x="258.39" y="202.57" class="st23" width="55.6" height="6.8"/>
				</g>
				<g>
					<g>
						<path class="st24" d="M299.92,169.68c0,0,22.91-9.19,35.19-2.78l1.16,14.75l-37.42,4.7L299.92,169.68z"/>
						<path class="st22" d="M348.88,199.42c0,0-37.2,4.47-67.35-11.35l25.54-7.73l31.55-5.31L348.88,199.42z"/>
					</g>
					<g>
						<path class="st22" d="M323.76,110.61c0,0,14.45,0.92,23.66,29.53c9.79,30.4,10.5,54.33,3.7,58.35        c-6.79,4.01-15.22-4.85-23.86-29.33c-8.64-24.48-12.63-37.66-12.63-37.66L323.76,110.61z"/>
						<line class="st25" x1="320.79" y1="150.45" x2="323.02" y2="132.01"/>
					</g>
				</g>
				<g>
					<g>
						<path class="st22" d="M247.33,111.29c0,0-14.45,0.92-23.66,29.53c-9.79,30.4-10.5,54.33-3.7,58.35        c6.79,4.01,16.24-4.85,24.88-29.33c8.64-24.48,11.61-37.66,11.61-37.66L247.33,111.29z"/>
						<line class="st25" x1="251.86" y1="148.69" x2="249.86" y2="132.01"/>
					</g>
					<g>
						<path class="st24" d="M259.32,169.79c0,0-10.38-10.76-27.52-16.35c-0.75-0.24-1.58-0.07-2.17,0.45l0,0        c-1.2,1.06-0.92,3.01,0.53,3.69l10.33,4.83l-13.56,0.9c-2.23,0.15-3.96,2.14-3.64,4.35c0.28,1.95,1.6,4.5,5.36,7.46        L259.32,169.79z"/>
						<g>
							<g>
								<path class="st22" d="M228.65,175.12c0,0,49.13-9.69,72.44-9.6l9.3,22.99c0,0-72.72,18.23-90.41,10.65L228.65,175.12z"/>
								<path class="st25" d="M259.32,169.79c0,0,30.88-4.82,41.77-4.26l1.31,3.25"/>
								<polyline class="st25" points="257.95,198.91 310.38,188.52 302.4,168.78         "/>
							</g>
						</g>
					</g>
				</g>
			</g>
			<g>
				<path class="st15" d="M260.63,64.51l-10.97,14.32c0,0,39.46,30.31,71.91-2.14L310,62.56L260.63,64.51z"/>
				<path class="st24" d="M295.87,102.83l-2.77-21.99c0,0-2.86,2.92-6.66,3.62c-3.8,0.71-7.47-1.51-7.52-1.54      c-0.05-0.03-3.1-2.57-3.1-2.57l-1.67,22.78c0,0.27-0.03,0.54-0.07,0.8l12.02,26.12l9.83-26.52      C295.89,103.3,295.87,103.07,295.87,102.83z"/>
				<path class="st17" d="M274.08,81.22c0,0,5.81,12.27,12.73,10.66c7.22-1.68,7.19-12.22,7.19-12.22L274.08,81.22z"/>
				<g>
					<path class="st15" d="M309.18,48.97c0,13.74-10.69,24.88-23.88,24.88c-13.19,0-23.88-11.14-23.88-24.88       c0-13.74,10.69-23.09,23.88-23.09C298.48,25.89,309.18,35.23,309.18,48.97z"/>
				</g>
				<path class="st24" d="M305.03,50.25c0,8.57-1.19,15.96-2.38,21.2c-1.16,5.14-4.44,8.73-9.07,11.62l-0.84,0.53      c-4.9,3.06-11.23,3.13-16.21,0.18h0c-5.02-2.97-8.53-6.89-9.61-12.4c-1.97-10.03-2.18-21.13-2.18-21.13s-1.87-21.62,19.86-21.2      C306.33,29.47,305.03,50.25,305.03,50.25z"/>
				<g>
					<path class="st24" d="M267.1,70.56c-3.83,3.31-11.89-9.79-8.18-13.32c3.71-3.53,6.33,2.21,6.33,2.21L266,63.6l1.12,5.57       l0.29,1.25L267.1,70.56z"/>
					<g>
						<g>
							<path class="st18" d="M260.58,61.66c0,0,1.57-3.39,5.21,2.56"/>
						</g>
					</g>
				</g>
				<g>
					<path class="st24" d="M302.64,70.64c3.89,3.24,11.72-9.99,7.96-13.46c-3.77-3.47-6.29,2.32-6.29,2.32l-0.68,4.15l-1.02,5.59       l-0.27,1.25L302.64,70.64z"/>
					<g>
						<g>
							<path class="st18" d="M309,61.62c0,0-1.63-3.36-5.17,2.65"/>
						</g>
					</g>
				</g>
				<path class="st15" d="M305.63,44.96c-1.3-6.49-5.78-10.36-7.74-11.79c-2.44-2.41-5.66-4.31-9.94-4.86c0,0-13.57-3.06-19.19,7.2      c-1.94,1.82-4.28,4.86-5.2,9.44c-1.68,8.38,1.44,12.03,1.44,12.03s5.34-7.22,6.68-16.07c4.11,3.4,12.44,7.66,28.26,7.44      c2.47,5.21,5.45,8.86,5.45,8.86S307.31,53.34,305.63,44.96z"/>
				<g>
					<g>
						<path class="st15" d="M277.25,58.65c0,1.11-0.9,2-2,2c-1.11,0-2-0.9-2-2c0-1.11,0.9-2,2-2        C276.35,56.65,277.25,57.55,277.25,58.65z"/>
						<path class="st15" d="M295.8,58.65c0,1.11-0.9,2-2,2c-1.11,0-2-0.9-2-2c0-1.11,0.9-2,2-2        C294.91,56.65,295.8,57.55,295.8,58.65z"/>
					</g>
					<path class="st18" d="M283.04,63.02l0,2.7c0,0.68,0.61,1.19,1.25,1.06l1.44-0.3"/>
					<path class="st15" d="M292.91,49.38c0,0-5.87-0.48-5.93,1.91c0,0,0,1.62,5.12,1.94c5.12,0.32,6.45-0.05,6.92-1.57       C299.49,50.13,295.66,49.4,292.91,49.38z"/>
					<path class="st15" d="M275.36,49.38c0,0,5.87-0.48,5.93,1.91c0,0,0,1.62-5.12,1.94c-5.12,0.32-6.45-0.05-6.92-1.57       C268.78,50.13,272.61,49.4,275.36,49.38z"/>
					<path class="st18" d="M289.83,68.86c0,0-2.11,3.38-7.54,2.43"/>
				</g>
			</g>
		</g>
	</g>
</g>
<g id="Layer_4">
</g>
<g id="DESIGNED_BY_FREEPIK">
</g>
</svg>