<svg id="Layer_1" data-name="Layer 1" xmlns="http://www.w3.org/2000/svg" viewBox="0 0 200.10001 200.05881"><path id="Path_161" data-name="Path 161" d="M137.5,31.3V43.8a18.27925,18.27925,0,0,0,15.6,18.9v3a3.1,3.1,0,0,0,6.2,0V60.6c7-14,1.5-35.5-14.4-35.5h-3.5C147.9,5.9,167,2.4,179.8,10A3.13847,3.13847,0,1,0,183,4.6h0a32.19059,32.19059,0,0,0-44.3,11.2,31.39062,31.39062,0,0,0-4.2,11.9,2.88,2.88,0,0,0,.7,2.5A2.84466,2.84466,0,0,0,137.5,31.3Zm6.2,0H145c10.3,0,13.4,15.4,9.3,25.2a12.14851,12.14851,0,0,1-10.6-12.7Z" transform="translate(-25 0.00881)" fill="#01293d"></path><path id="Path_162" data-name="Path 162" d="M50,112.5a3.1,3.1,0,1,0-3.1,3.1A3.05246,3.05246,0,0,0,50,112.5Z" transform="translate(-25 0.00881)" fill="#01293d"></path><path id="Path_163" data-name="Path 163" d="M34.4,109.4a3.1,3.1,0,0,0,0-6.2h0a3.11561,3.11561,0,0,0-3.1,3.1A3.05246,3.05246,0,0,0,34.4,109.4Z" transform="translate(-25 0.00881)" fill="#01293d"></path><path id="Path_164" data-name="Path 164" d="M46.9,134.4a3.1,3.1,0,1,0,3.1,3.1,3.1156,3.1156,0,0,0-3.1-3.1Z" transform="translate(-25 0.00881)" fill="#01293d"></path><path id="Path_165" data-name="Path 165" d="M31.2,143.8a3.1,3.1,0,1,0,6.2,0h0a3.1,3.1,0,1,0-6.2,0Z" transform="translate(-25 0.00881)" fill="#01293d"></path><path id="Path_166" data-name="Path 166" d="M50,125a3.1,3.1,0,1,0,6.2,0h0a3.1,3.1,0,0,0-6.2,0Z" transform="translate(-25 0.00881)" fill="#01293d"></path><path id="Path_167" data-name="Path 167" d="M25,125a3.1,3.1,0,1,0,3.1-3.1A3.11561,3.11561,0,0,0,25,125Z" transform="translate(-25 0.00881)" fill="#01293d"></path><path id="Path_168" data-name="Path 168" d="M40.6,121.9a3.1,3.1,0,1,0,3.1,3.1A3.1156,3.1156,0,0,0,40.6,121.9Z" transform="translate(-25 0.00881)" fill="#01293d"></path><path id="Path_169" data-name="Path 169" d="M221.9,62.5H190.6c-3.3,0-3.1,3.5-3.1,3.5a48.16768,48.16768,0,0,0-6.5-7.7c13.8-6.1,19.8-18,17.4-31.7a3.0992,3.0992,0,0,0-6.1,1.1h0c3.8,21.4-17.5,25.7-19.2,27a3.15853,3.15853,0,0,0-.6,4.4h0l.3.3c.9.9,14.8,11.2,14.8,24.9.1,41.9-.2,40.8.2,43.1-.6,1.4.7,11.7-8.6,20.3-1.7,1.6-.7,3.4-1,11.7a3.1,3.1,0,1,0,6.2,0v-8.1a31.93528,31.93528,0,0,0,8.7-16,12.37215,12.37215,0,0,0,7.2,2.1c1.1,20.6-9,34.4-31.5,34.4-25.9,0-38.3-33.9-40.4-40.4,23-11.6,22.7-10.9,23.5-12.1l23.8-32.1a3.14007,3.14007,0,0,0-5-3.8l-23.3,31.5-13.8,6.9-4.5-11.3c13.1-7.1,12.9-6.6,13.6-7.5l19.7-25.7a3.14007,3.14007,0,0,0-5-3.8L138,98.9c-15.8,9-21.6,9.6-25.9,16.8H65.6a3.1156,3.1156,0,0,0-3.1,3.1v12.5a3.11561,3.11561,0,0,0,3.1,3.1h46.2c3,5.4,4.9,2.8,10.9-.1,7.3,21.7,23.1,43.8,46.1,43.8,26.3,0,39-17,37.8-40.6h6A12.50457,12.50457,0,0,0,225.1,125V65.7a3.28918,3.28918,0,0,0-3.2-3.2ZM109.6,128.2H68.7v-6.3h40.9a22.16257,22.16257,0,0,0,0,6.3Zm7.1,2.1a12.60057,12.60057,0,0,1-.8-7.9,13.30691,13.30691,0,0,1,7.4-8.8l4.4,11.1Zm102-5.3a6.23122,6.23122,0,0,1-6.2,6.2H200a6.23122,6.23122,0,0,1-6.2-6.2V93.8h25Zm0-37.5h-25V68.8h6.2V75a3.1,3.1,0,0,0,6.2,0h0V68.8h12.5Z" transform="translate(-25 0.00881)" fill="#01293d"></path><path id="Path_170" data-name="Path 170" d="M193.7,15.7a3.1,3.1,0,1,0-3.1,3.1A3.05247,3.05247,0,0,0,193.7,15.7Z" transform="translate(-25 0.00881)" fill="#01293d"></path><path id="Path_171" data-name="Path 171" d="M153.1,109.9V158c0,6.4,6.2,6.4,6.2,0V109.9C159.4,103.6,153.1,103.6,153.1,109.9Z" transform="translate(-25 0.00881)" fill="#01293d"></path><path id="Path_172" data-name="Path 172" d="M153.1,175.2v19.9c0,6.6,6.2,6.6,6.2,0V175.2C159.4,168.6,153.1,168.6,153.1,175.2Z" transform="translate(-25 0.00881)" fill="#01293d"></path><path id="Path_173" data-name="Path 173" d="M178.1,175.8v19.4c0,6.4,6.2,6.4,6.2,0V175.8C184.4,169.3,178.1,169.3,178.1,175.8Z" transform="translate(-25 0.00881)" fill="#01293d"></path></svg>