<svg id="b966c59f-b479-4bdc-9b05-5429b02b725d" data-name="Layer 1" xmlns="http://www.w3.org/2000/svg" viewBox="0 0 200.025 177.58794"><path id="b00b021a-68c2-4837-96bb-c23f2b8b22d7" data-name="Path 160" d="M212.2,118.9l7.4,7.4a3.29356,3.29356,0,0,0,4.6-.2,3.3452,3.3452,0,0,0,0-4.4l-7.4-7.4.9-.9a3.11464,3.11464,0,0,0,.2-4.3L206.6,95a5.03176,5.03176,0,0,1-1.2-2.9l-.4-3.8a3.57962,3.57962,0,0,0-3.5-3.3c-1.8.1-2.9,2.2-3,3.5a11.02034,11.02034,0,0,0,.2,1.8,21.43477,21.43477,0,0,0,.3,2.4,19.9266,19.9266,0,0,0,2.6,6.2l2.3,2.9-29.5,29.5a3.27185,3.27185,0,1,0,4.1,5.1c.2-.2.4-.3.5-.5l29-29,3.1,3.9-1.2,1.2h0l-32.3,32.3h0l-.9.9-13.9-13.8a3.1679,3.1679,0,0,0-2.3-.9h-3.8a30.38763,30.38763,0,0,1-22.4-10,12.93415,12.93415,0,0,0,1.4-24.8,12.89009,12.89009,0,0,0-3.5-17.9,2.09225,2.09225,0,0,1-.6-.4,12.9953,12.9953,0,0,0,1.3-14.8h5v6.5h6.5V56.3h6.5v6.5a3.22216,3.22216,0,0,0,3.2,3.2h9.7a46.7609,46.7609,0,0,0,13.8,31.3l4.6-4.6a40.53559,40.53559,0,0,1-12-28.9V30.7a6.69325,6.69325,0,0,1,6.3-6.7,6.4684,6.4684,0,0,1,6.6,6.3V46.7a12.19744,12.19744,0,0,0,2.6,7.5l9.4,11.8a5.84658,5.84658,0,0,1,1.2,2.8l.7,2.5a3.99365,3.99365,0,0,0,3.7,3.8c1.5-.1,2.5-1.7,2.8-2.8a6.39869,6.39869,0,0,0-.7-4.3,66.45164,66.45164,0,0,0-2.7-6.1l-9.4-11.8a5.431,5.431,0,0,1-1.2-3.4V30.5a12.93146,12.93146,0,0,0-12.9-12.9h-.2a13.02512,13.02512,0,0,0-12.2,9.7h-10.2a3.15906,3.15906,0,0,0-3.2,3.2V37h-6.5V24H138v6.5h-4.4l-3.9-3.6c-.6-1-11.4-12-11.4-12a13.33013,13.33013,0,0,0-8.4-3.8,14.38982,14.38982,0,0,0-13.2,8.5l5.8,2.4a7.2684,7.2684,0,0,1,6.9-4.5,6.54943,6.54943,0,0,1,4.2,1.9l9.3,9.3a6.6468,6.6468,0,0,1-9.4,9.4l-9.3-9.3a6.69523,6.69523,0,0,1-1.5-7l-6.1-2.2a13.16751,13.16751,0,0,0,.8,10.8H60.5a3.15907,3.15907,0,0,0-3.2,3.2h0v3.2H47.6A3.15907,3.15907,0,0,0,44.4,40h0v3.2H25v6.5H44.4v3.2a3.15907,3.15907,0,0,0,3.2,3.2h9.7v3.2a3.15907,3.15907,0,0,0,3.2,3.2h61.3a6.45484,6.45484,0,0,1,.5,12.9H102.4a6.487,6.487,0,0,1-6.5-6.5h0A2.76856,2.76856,0,0,1,96,68a10.28972,10.28972,0,0,1,4.7-6.3l-7.5-1.3a13.848,13.848,0,0,0-2.6,13.8,12.97227,12.97227,0,0,0,5.2,5.9,12.882,12.882,0,0,0,1.6,18.2,13.4089,13.4089,0,0,0,4,2.3,12.90114,12.90114,0,0,0,10.7,20.1h14.4a36.41236,36.41236,0,0,0,30.3,16.1h2.4L174.4,152a3.20032,3.20032,0,0,0,4.6,0h0l.9-.9,36.5,36.4a3.265,3.265,0,0,0,5-4.2c-.1-.2-.3-.3-.4-.4l-36.4-36.4ZM157.3,33.7h6.5V59.5h-6.5Zm-6.4,9.7v6.5h-6.5V43.4ZM50.8,49.8V43.3h6.4v6.5Zm12.9,6.5V36.9h39.6l5.8,5.8a13.09714,13.09714,0,0,0,18.5,0,12.93789,12.93789,0,0,0,3.4-5.9h6.9V56.2ZM99.2,88.6a6.487,6.487,0,0,1,6.5-6.5H125A6.45484,6.45484,0,0,1,125,95H105.6A6.44484,6.44484,0,0,1,99.2,88.6Zm6.5,19.3a6.53183,6.53183,0,0,1,6.4-6.5h19.4a6.45484,6.45484,0,0,1,0,12.9H112.1a6.31762,6.31762,0,0,1-6.4-6.4Zm98.4-27.2a3.1,3.1,0,1,1-3.1-3.1,2.99308,2.99308,0,0,1,3.1,3.1Z" transform="translate(-25 -11.1)" fill="#01293d"></path></svg>