<svg xmlns="http://www.w3.org/2000/svg" viewBox="0 0 162.13 224.1" width="65" height="65"><path d="M107.94,236.13c-4.47-1.63-7.57-4.76-11.09-7.16-2.5,1.5-3.92,3.84-5.91,5.58s-3.85,2-5.79.19-1.9-3.8-.54-5.86c1.63-2.48,4.38-4.09,5.63-6.82-14.31-28.58-14.31-28.58-20.47-67-2.85-1.66-6.22-1-9.8-1.75-.45,8.3.64,16.22,1.54,24.06,1,9.17.62,17.73-3.84,26.11-3.19,6-5.32,12.56-7.93,18.86-1.16,2.79-2.71,5.38-6.28,3.88s-2.85-4.42-1.69-7.22q5.34-12.92,10.74-25.81a10.6,10.6,0,0,0,1.19-5.27c-1.14-12.27-2.17-24.55-3.29-36.83-.24-2.55-.5-5,2.34-6.93,5.18-1.17,10.48,1.49,16.45,1v-18.8c-2.17,0-3.88,1.53-5.43,2.8a27.49,27.49,0,0,1-17.39,6.43c-4.65.1-9.28.85-13.93,1.26-2.79.24-5.13-.51-5.48-3.69-.38-3.47,1.9-4.69,4.9-5,5.14-.48,10.28-1,15.44-1.3a16.59,16.59,0,0,0,8.81-3c4.92-3.4,10-6.52,15.12-9.79L74,105.31c-3.06-3.47-7.25-5.63-10.81-8.56-4-3.27-3.6-5.9,1.52-8.82,4.68,1.67,8.1,5.85,12.68,8.2,1.91-.69,2.14-2.2,2.06-4C79,82.43,82.32,74.55,90.92,69.05c.07-4.8.94-9.5,4.18-13.5-2.57-11.16-8-20.78-14.78-29.75-1.61-2.12-3.4-4.11-5-6.24-1.74-2.31-1.92-4.67.55-6.58s4.37-.77,6.09,1.17C90.28,23.62,97,34,101.33,46c.45,1.24,1,2.43,1.59,3.83h10.24c2.92-7.65,6-15.36,10.7-22.31a153.66,153.66,0,0,1,9.33-12.35c1.91-2.29,3.93-4.44,7.11-2.07,2.39,1.78,2.2,4.39-.67,7.8a118.3,118.3,0,0,0-10.76,15,82.61,82.61,0,0,0-8.08,19.38A21.91,21.91,0,0,1,125,69.05c10.42,6,12,16.25,11.91,27.55,6-2.23,9.31-6.93,14.25-8.54,5.21,2.45,5.7,5.45,1.46,8.83-3.38,2.69-6.93,5.18-10.66,8l2.69,9.19c6,3.87,12,7.78,18,11.64,1.6,1,3.49,1,5.32,1.19,5.48.45,11,.85,16.43,1.39,2.78.28,4.87,1.59,4.65,4.75s-2.42,4.17-5.26,3.92c-7.14-.64-14.26-1.36-21.39-2-2.09-.2-3.69-1.46-5.37-2.52-3.22-2-6.41-4.15-10.24-6.63v19.43c5.63.77,11.09-2.14,16.37-1,2.43,1.55,2.77,3.56,2.57,5.87-1.06,12.11-2,24.23-3.18,36.33a14,14,0,0,0,1.1,7.24c3.38,7.79,6.61,15.64,9.86,23.48a23.61,23.61,0,0,1,1.53,4.74,3.77,3.77,0,0,1-2.39,4.45,4,4,0,0,1-5.22-1.6,16,16,0,0,1-1.47-3.16c-3.5-8.27-6.92-16.59-10.51-24.82a19.5,19.5,0,0,1-1.59-9.71c.93-10.93,1.7-21.87,2.56-33.32-3.72.17-6.95,0-10.4,1.46-.33,3-.65,6.17-1,9.29-.21,1.82-.44,3.64-.75,5.44-.5,2.84-2.07,4.65-5.14,4.16-2.9-.47-3.53-2.7-3.29-5.28.56-6.14,1.31-12.26,1.69-18.4.85-13.84,1.2-27.65-3.42-41-.54-1.57-1.18-3.11-1.82-4.64a3.48,3.48,0,0,0-1.94-2.22,64.94,64.94,0,0,1-17.85,8.7V222.15c5-3.08,7.3-7.74,10.14-11.89a42.65,42.65,0,0,0,2.2-3.91c1.37-2.53,3.32-3.9,6.12-2.41s2.66,4,1.37,6.46c-1.55,2.94-3.34,5.76-5,8.62-.51.85-1.06,1.68-1.61,2.54.84,2.78,3.23,4.25,4.89,6.27,1.93,2.35,2.7,4.74.14,7s-4.57.82-6.49-1.12c-1.51-1.54-3.07-3-4.81-4.72C115.6,231.2,112.53,234.68,107.94,236.13ZM85.21,101.88A52.1,52.1,0,0,0,79,121.74c-2.38,21.42-.32,42.56,4.61,63.45,2.66,11.27,6.89,21.91,14,31.23,1.56,2.05,3,4.26,5.93,5.71v-111A63.3,63.3,0,0,1,85.21,101.88Zm3.2-9.18c13.3,12.47,25.69,13.39,39.19-.24,1.15-10.83-4.46-17.37-15.11-17.57-2.82-.06-5.65,0-8.47,0C93,74.94,87.25,81.42,88.41,92.7Zm27.33-26.85c-1-5-3.88-7.67-7.87-7.6s-6.89,3-7.43,7.6Z" transform="translate(-26.93 -12.03)"></path><path d="M135.68,185c2.53.06,4.13,1.3,4.29,3.81.18,2.76-1.3,4.39-4.1,4.41-2.54,0-4-1.41-4-4S133.16,185.24,135.68,185Z"></path><path d="M135.68,185c2.53.06,4.13,1.3,4.29,3.81.18,2.76-1.3,4.39-4.1,4.41-2.54,0-4-1.41-4-4S133.16,185.24,135.68,185Z"></path><path></path><path></path></svg>