<svg xmlns="http://www.w3.org/2000/svg" viewBox="0 0 428.5 512" width="65" height="65"><path d="M156.56,166.49a7.5,7.5,0,0,0,5.54-13.94,43.09,43.09,0,0,0-16-3.07h-.36A43.16,43.16,0,0,0,130,152.55a7.5,7.5,0,1,0,5.55,13.94,28.34,28.34,0,0,1,21,0Zm257.19,83.87a84,84,0,0,0-83.85,83.85v30.05a39,39,0,0,1-25.1,36.34,112.63,112.63,0,0,0-2.39-21.81,454.63,454.63,0,0,0-37.08-107,7.5,7.5,0,0,0-13.44,6.66c4.74,9.57,9.18,19.44,13.2,29.34,1.53,3.75,3,7.54,4.4,11.34,1.32,8.41,3.19,32.69-14.34,52.39A60.67,60.67,0,0,1,227.44,389a10.51,10.51,0,0,1-3,.44,10.33,10.33,0,0,1-9.81-7.28,10.24,10.24,0,0,1,6.83-12.8,40.31,40.31,0,0,0,18.35-11.52c12.45-14,9.93-32.58,9.3-36.16a7.5,7.5,0,0,0-14.78,2.6c.26,1.47,2.29,14.58-5.72,23.58-.4.45-.81.85-1.22,1.25-11.12-17.62-28.57-28.26-47.15-28.26s-36,10.62-47.12,28.21c-.4-.38-.79-.77-1.17-1.2-8-9-6-22.11-5.73-23.58a7.5,7.5,0,1,0-14.77-2.6c-.63,3.58-3.15,22.17,9.29,36.15a40.31,40.31,0,0,0,18.35,11.53,10.26,10.26,0,0,1-3,20.08,10.56,10.56,0,0,1-3-.44c-.65-.2-1.29-.41-1.93-.63l-.14,0a60.21,60.21,0,0,1-25.63-16.85c-17.78-20-15.62-44.65-14.3-52.72,1.39-3.69,2.8-7.36,4.28-11a433.76,433.76,0,0,1,24.43-50.48,323.84,323.84,0,0,0,56.28,49,7.51,7.51,0,0,0,7.88.23,269.86,269.86,0,0,0,47.94-37.17,214.28,214.28,0,0,0,19.46-21.59A83.57,83.57,0,0,1,281,260.13a7.5,7.5,0,0,0,8.33-12.47,98.87,98.87,0,0,0-28.56-13.1,133.4,133.4,0,0,0,15.18-31.91A68.36,68.36,0,0,1,287.68,205a7.5,7.5,0,1,0,4.3-14.37,82,82,0,0,0-12.56-2.7,97.53,97.53,0,0,0-1.16-36.81,75,75,0,1,0-75.48-76c-20.73-4.63-29.43-3.61-45.05.21A75,75,0,1,0,60.45,147.8a7.5,7.5,0,1,0,4.46-14.32,60,60,0,1,1,77.68-52.89A108.08,108.08,0,0,0,109.12,104c-27.62,28.49-32.23,57.15-28.05,82.65a92.8,92.8,0,0,0-15.67,2.42,7.5,7.5,0,1,0,3.54,14.57,79.51,79.51,0,0,1,15.94-2.17,138.7,138.7,0,0,0,16.69,32.61,98.86,98.86,0,0,0-30.38,13.56,7.5,7.5,0,0,0,8.33,12.47,84,84,0,0,1,28.05-12.08l.29-.06a454.67,454.67,0,0,0-49.77,130.8,110.6,110.6,0,0,0,16.59,84.88,35.91,35.91,0,0,0-28.16,35A14.51,14.51,0,0,0,61,513.18h49.85a25.33,25.33,0,0,0,17.52-7.11,112.82,112.82,0,0,0,39.51,7.11h24.7a112.45,112.45,0,0,0,39.49-7.13,25.34,25.34,0,0,0,17.54,7.13h49.85a14.51,14.51,0,0,0,14.5-14.5,35.91,35.91,0,0,0-28.11-35A110.41,110.41,0,0,0,294.7,448a83.94,83.94,0,0,0,80.2-83.75V334.21a38.9,38.9,0,0,1,38.85-38.85,22.5,22.5,0,0,0,0-45ZM192.36,282.91c-4.94,3.59-9.06,6.33-11.87,8.13-2.9-2.08-7.25-5.29-12.48-9.44,0-.24,0-.49,0-.72a12.29,12.29,0,0,1,24.58,0A11.69,11.69,0,0,1,192.36,282.91ZM277.75,16.18a60,60,0,0,1,0,120c-1.4,0-2.79-.05-4.16-.15a106.18,106.18,0,0,0-17.21-29.3A96.87,96.87,0,0,0,217.86,79.8,60,60,0,0,1,277.75,16.18ZM101.37,202.72c1.7.31,3.42.68,5.17,1.14a76,76,0,0,1,24.33,11.2,7.5,7.5,0,0,0,8.55-12.33,91.14,91.14,0,0,0-29.11-13.39,90.15,90.15,0,0,0-14-2.47c-4.5-22.73-.93-47.19,23.53-72.41C140,93.71,172.55,80.51,207.6,92c12.89,4.22,25.18,10.36,37.43,24.55a93.17,93.17,0,0,1,16,28.81c0,.11.07.22.11.34,4.64,12,5.65,28.19,3.19,41.66a79.95,79.95,0,0,0-43.4,15.51,7.5,7.5,0,0,0,8.87,12.1,65.37,65.37,0,0,1,24-11c2.16-.5,4.27-.86,6.33-1.13a125,125,0,0,1-15.37,28.74,99.26,99.26,0,0,0-20.1-.08,7.5,7.5,0,1,0,1.46,14.93c2.42-.24,4.84-.36,7.26-.39a234.59,234.59,0,0,1-27.22,26.27A27.29,27.29,0,0,0,155,270.68,289.76,289.76,0,0,1,130,246.06c1.46.07,2.92.16,4.39.3a7.5,7.5,0,0,0,1.46-14.93,98.79,98.79,0,0,0-17.87-.11,138.75,138.75,0,0,1-16.64-28.6Zm58.92,183.82a25.3,25.3,0,0,0-13.88-30.41c8.38-12.82,20.61-20.26,33.84-20.26,13,0,25.47,7.61,33.84,20.3a25.25,25.25,0,0,0,9.55,48.26,62.38,62.38,0,0,1-13.19,30.08c-8.25,9.91-19,15.37-30.2,15.37s-21.95-5.46-30.2-15.38a62.2,62.2,0,0,1-13.18-30.07,25.1,25.1,0,0,0,23.42-17.89ZM110.87,498.18H61.52a20.88,20.88,0,0,1,20.85-20.35H86a111.6,111.6,0,0,0,25.56,20.3C111.32,498.15,111.1,498.18,110.87,498.18Zm188.1,0H249.63c-.25,0-.5,0-.75-.05a112.84,112.84,0,0,0,25.65-20.3h3.6A20.86,20.86,0,0,1,299,498.18Zm-106.37,0H167.9c-61.88,0-107.67-56.59-95.13-116.31q2.81-13.37,6.48-26.57a73,73,0,0,0,15,26.18,74.87,74.87,0,0,0,27.08,19.2c3.18,36.38,28.31,64.2,59,64.2s55.75-27.8,58.95-64.17a74.88,74.88,0,0,0,27.15-19.23,72.8,72.8,0,0,0,14.93-26.06c2.42,8.76,4.59,17.58,6.45,26.45,12.39,59-33.68,116.53-95.13,116.31ZM413.75,280.36a53.91,53.91,0,0,0-53.85,53.85v30.05a68.94,68.94,0,0,1-59.4,68.18,108.49,108.49,0,0,0,3.33-15.87,54,54,0,0,0,41.07-52.31V334.21a68.93,68.93,0,0,1,68.85-68.85,7.5,7.5,0,0,1,0,15ZM203.94,166.49a28.39,28.39,0,0,1,10.26-2h.23a28.26,28.26,0,0,1,10.48,2,7.5,7.5,0,1,0,5.55-13.94,43.37,43.37,0,0,0-32.06,0,7.5,7.5,0,1,0,5.54,13.94Z" transform="translate(-7.75 -1.18)"></path><path></path><path></path><path></path><path></path></svg>